<svg width="202" height="232" viewBox="0 0 202 232" fill="none" xmlns="http://www.w3.org/2000/svg">
<path d="M17 173L185 2.11845L26.1764 104.506L17 173Z" fill="white"/>
<path d="M151.442 55.7561C155.742 64.2035 157.803 73.6136 157.427 83.0857C157.052 92.5578 154.252 101.775 149.297 109.855C144.342 117.935 137.397 124.608 129.126 129.235C120.855 133.862 111.535 136.288 102.059 136.282C101.954 136.282 101.851 136.274 101.746 136.274L86.9277 160.281C91.916 161.227 96.982 161.702 102.059 161.702C146.697 161.702 182.883 125.504 182.883 80.851C182.909 63.0961 177.066 45.8306 166.263 31.7428L151.442 55.7561Z" fill="white"/>
<path d="M48.2887 141.208L66.111 122.983C60.3319 118.057 55.6272 111.995 52.2891 105.173C48.951 98.3512 47.0508 90.9157 46.7067 83.3284C46.3625 75.741 47.5818 68.1639 50.2886 61.0679C52.9954 53.9718 57.1321 47.5083 62.4415 42.079C67.7509 36.6497 74.1196 32.3705 81.1521 29.5074C88.1845 26.6443 95.7304 25.2583 103.321 25.4356C110.911 25.613 118.384 27.3498 125.275 30.5382C132.167 33.7267 138.329 38.2986 143.379 43.9699L161.198 25.749C153.644 17.6152 144.492 11.1297 134.315 6.69886C124.139 2.26807 113.157 -0.0125194 102.059 5.53489e-06C57.4213 5.53489e-06 21.2354 36.1981 21.2354 80.851C21.2232 92.2528 23.6281 103.528 28.2914 113.932C32.9547 124.335 39.7703 133.632 48.2887 141.208Z" fill="white"/>
<path d="M129.913 227.619V201.742L119.98 215.029C119.64 215.499 119.193 215.882 118.676 216.146C118.159 216.41 117.587 216.547 117.007 216.547C116.426 216.547 115.854 216.41 115.337 216.146C114.82 215.882 114.373 215.499 114.033 215.029L104.1 201.742V227.619C104.091 228.595 103.698 229.528 103.004 230.215C102.311 230.902 101.375 231.288 100.399 231.288C99.4225 231.288 98.486 230.902 97.7928 230.215C97.0996 229.528 96.7059 228.595 96.6973 227.619V190.67C96.7015 189.693 97.0939 188.757 97.7882 188.069C98.4824 187.38 99.4217 186.996 100.399 187L100.43 187.001C100.996 186.995 101.555 187.124 102.061 187.377C102.567 187.63 103.006 188 103.341 188.456L117.006 206.677L130.673 188.456C131.008 188 131.446 187.63 131.952 187.377C132.458 187.124 133.017 186.995 133.583 187C134.56 186.988 135.503 187.364 136.203 188.047C136.903 188.729 137.303 189.662 137.316 190.639L137.316 190.67V227.619C137.308 228.595 136.914 229.528 136.221 230.216C135.527 230.903 134.591 231.289 133.615 231.289C132.638 231.289 131.702 230.903 131.008 230.216C130.315 229.528 129.922 228.595 129.913 227.619Z" fill="white"/>
<path d="M170.715 216.547C170.709 219.466 169.838 222.318 168.212 224.743C166.587 227.167 164.279 229.056 161.581 230.17C158.883 231.284 155.915 231.574 153.052 231.003C150.189 230.432 147.56 229.026 145.496 226.961C143.432 224.897 142.025 222.268 141.454 219.405C140.883 216.542 141.173 213.574 142.287 210.876C143.402 208.178 145.29 205.871 147.715 204.245C150.14 202.619 152.991 201.748 155.911 201.742C159.837 201.744 163.601 203.304 166.378 206.08C169.154 208.856 170.714 212.621 170.715 216.547ZM163.313 216.547C163.319 215.089 162.893 213.662 162.088 212.447C161.284 211.231 160.136 210.282 158.792 209.718C157.448 209.154 155.966 209.002 154.535 209.28C153.104 209.559 151.788 210.255 150.753 211.281C149.717 212.308 149.01 213.618 148.719 215.047C148.429 216.475 148.568 217.958 149.12 219.307C149.672 220.656 150.612 221.811 151.821 222.627C153.03 223.442 154.453 223.88 155.911 223.886C156.878 223.891 157.838 223.704 158.734 223.337C159.629 222.971 160.444 222.431 161.132 221.75C161.819 221.068 162.366 220.258 162.74 219.365C163.114 218.473 163.309 217.515 163.313 216.547Z" fill="white"/>
<path d="M202 216.547C202 224.646 195.799 231.289 188.207 231.289C185.769 231.3 183.378 230.62 181.311 229.328C180.989 229.92 180.514 230.414 179.935 230.759C179.356 231.104 178.695 231.287 178.021 231.289C177.048 231.288 176.115 230.901 175.427 230.213C174.739 229.525 174.352 228.592 174.352 227.619V190.67C174.36 189.694 174.753 188.761 175.447 188.073C176.14 187.386 177.077 187 178.053 187C179.029 187 179.966 187.386 180.659 188.073C181.352 188.761 181.746 189.694 181.754 190.67V203.45C183.721 202.333 185.945 201.744 188.207 201.742C195.8 201.742 202 208.385 202 216.547ZM194.661 216.547C194.661 212.435 191.75 209.144 188.207 209.144C184.601 209.144 181.754 212.435 181.754 216.547C181.754 220.596 184.601 223.886 188.207 223.886C191.75 223.886 194.661 220.596 194.661 216.547Z" fill="white"/>
<path d="M36.6342 226.227C36.8521 226.787 36.9311 227.391 36.8645 227.987C36.7979 228.584 36.5876 229.156 36.2518 229.653C35.9159 230.151 35.4644 230.559 34.9359 230.844C34.4075 231.129 33.8179 231.282 33.2176 231.289C32.4789 231.287 31.758 231.062 31.1487 230.645C30.5394 230.227 30.0698 229.636 29.8012 228.948L27.0173 222.052H9.87152L7.08768 228.948C6.81898 229.636 6.34939 230.227 5.74003 230.645C5.13066 231.062 4.40973 231.287 3.67106 231.289C2.70115 231.278 1.77403 230.888 1.08818 230.202C0.402324 229.516 0.012254 228.589 0.00147714 227.619C-0.0125683 227.143 0.0736805 226.668 0.254632 226.227L14.9962 189.342C15.2704 188.651 15.7457 188.059 16.3605 187.641C16.9753 187.224 17.7013 187.001 18.4443 187.001C19.1874 187.001 19.9133 187.224 20.5281 187.641C21.1429 188.059 21.6182 188.651 21.8925 189.342L36.6342 226.227ZM24.0437 214.713L18.476 200.603L12.8451 214.713L24.0437 214.713Z" fill="white"/>
<path d="M55.6022 205.475C55.6001 205.959 55.5026 206.438 55.3153 206.884C55.1281 207.331 54.8547 207.736 54.5109 208.077C54.1671 208.417 53.7595 208.687 53.3115 208.87C52.8634 209.054 52.3836 209.147 51.8996 209.145L51.8696 209.144H48.1998V227.619C48.1992 228.592 47.8124 229.525 47.1244 230.213C46.4364 230.901 45.5035 231.288 44.5304 231.289C43.5508 231.29 42.6098 230.906 41.9112 230.22C41.2126 229.533 40.8124 228.599 40.7974 227.619V209.144H38.9627C37.9897 209.144 37.0567 208.757 36.3687 208.069C35.6806 207.381 35.2937 206.448 35.293 205.475C35.2913 204.495 35.6754 203.555 36.3622 202.856C37.049 202.157 37.9832 201.757 38.9627 201.742H40.7974V198.073C40.8398 196.224 41.2937 194.409 42.1262 192.758C43.9609 189.025 47.4406 187.001 51.8696 187.001C52.8506 186.993 53.7946 187.375 54.494 188.064C55.1934 188.752 55.5909 189.689 55.5993 190.67C55.6077 191.651 55.2263 192.596 54.5387 193.295C53.8512 193.995 52.914 194.394 51.9329 194.403C51.9118 194.403 51.8907 194.403 51.8696 194.403C49.908 194.403 49.2124 195.163 48.8326 195.921C48.4527 196.578 48.2358 197.315 48.1998 198.073V201.742H51.8696C52.859 201.744 53.8073 202.138 54.5069 202.838C55.2065 203.537 55.6004 204.486 55.6022 205.475Z" fill="white"/>
<path d="M79.8542 205.475C79.852 205.959 79.7545 206.438 79.5673 206.884C79.38 207.331 79.1067 207.736 78.7629 208.077C78.419 208.417 78.0115 208.687 77.5634 208.87C77.1154 209.054 76.6356 209.147 76.1515 209.145L76.1215 209.144H72.4518V227.619C72.4511 228.592 72.0643 229.525 71.3763 230.213C70.6884 230.901 69.7554 231.288 68.7824 231.289C67.8027 231.29 66.8618 230.906 66.1631 230.22C65.4645 229.533 65.0644 228.599 65.0494 227.619V209.144H63.2147C62.2417 209.144 61.3087 208.757 60.6206 208.069C59.9326 207.381 59.5457 206.448 59.5449 205.475C59.5433 204.495 59.9274 203.555 60.6142 202.856C61.301 202.157 62.2352 201.757 63.2147 201.742H65.0494V198.073C65.0917 196.224 65.5456 194.409 66.3781 192.758C68.2129 189.025 71.6925 187.001 76.1215 187.001C76.608 186.996 77.0907 187.087 77.5419 187.269C77.9931 187.451 78.4041 187.72 78.7513 188.061C79.0984 188.401 79.375 188.807 79.5652 189.255C79.7554 189.703 79.8554 190.184 79.8596 190.67C79.8637 191.157 79.7719 191.639 79.5895 192.09C79.407 192.541 79.1374 192.952 78.7961 193.298C78.4548 193.645 78.0485 193.921 77.6004 194.111C77.1524 194.3 76.6713 194.399 76.1849 194.403C76.1638 194.403 76.1427 194.403 76.1215 194.403C74.16 194.403 73.4643 195.162 73.0845 195.921C72.7047 196.578 72.4877 197.315 72.4518 198.073V201.742H76.1215C77.1109 201.744 78.0593 202.138 78.7589 202.838C79.4585 203.537 79.8523 204.486 79.8542 205.475Z" fill="white"/>
<path d="M87.776 196.301C87.0467 196.295 86.3354 196.073 85.7316 195.664C85.1278 195.255 84.6584 194.677 84.3821 194.002C84.1059 193.327 84.0353 192.585 84.1791 191.87C84.323 191.155 84.6748 190.498 85.1905 189.983C85.7063 189.467 86.3629 189.115 87.0779 188.971C87.7929 188.828 88.5345 188.898 89.2095 189.174C89.8845 189.451 90.4629 189.92 90.872 190.524C91.2811 191.128 91.5027 191.839 91.509 192.568C91.5072 193.558 91.1134 194.506 90.4137 195.206C89.714 195.906 88.7655 196.299 87.776 196.301ZM84.1066 227.619V205.475C84.1049 204.495 84.489 203.555 85.1757 202.856C85.8624 202.158 86.7965 201.757 87.776 201.742C88.7621 201.755 89.7043 202.152 90.4017 202.849C91.099 203.547 91.4964 204.489 91.509 205.475V227.619C91.494 228.599 91.0939 229.533 90.3952 230.22C89.6966 230.906 88.7557 231.29 87.776 231.289C86.803 231.288 85.87 230.901 85.182 230.213C84.494 229.525 84.1072 228.592 84.1066 227.619Z" fill="white"/>
</svg>
