<svg width="803" height="174" viewBox="0 0 803 174" fill="none" xmlns="http://www.w3.org/2000/svg">
<path d="M0 173.5L168 2.61841L9.17643 105.006L0 173.5Z" fill="#F15A24"/>
<path d="M134.442 56.2561C138.742 64.7036 140.803 74.1136 140.427 83.5857C140.052 93.0578 137.252 102.275 132.297 110.355C127.342 118.435 120.396 125.108 112.125 129.735C103.855 134.362 94.5352 136.788 85.0588 136.782C84.9537 136.782 84.8503 136.774 84.7454 136.774L69.9275 160.781C74.9158 161.727 79.9818 162.202 85.0588 162.202C129.696 162.202 165.882 126.004 165.882 81.3511C165.909 63.5961 160.066 46.3306 149.263 32.2428L134.442 56.2561Z" fill="#F15A24"/>
<path d="M31.2886 141.708L49.1109 123.483C43.3318 118.557 38.6271 112.495 35.289 105.673C31.9509 98.8513 30.0507 91.4158 29.7066 83.8284C29.3625 76.2411 30.5817 68.664 33.2885 61.5679C35.9953 54.4718 40.132 48.0083 45.4414 42.579C50.7508 37.1497 57.1195 32.8706 64.152 30.0074C71.1844 27.1443 78.7303 25.7584 86.3208 25.9357C93.9113 26.113 101.384 27.8499 108.275 31.0383C115.167 34.2267 121.329 38.7986 126.379 44.47L144.198 26.249C136.644 18.1152 127.492 11.6297 117.315 7.19891C107.139 2.76811 96.1574 0.487526 85.0588 0.500051C40.4213 0.500051 4.23531 36.6981 4.23531 81.3511C4.22316 92.7529 6.62806 104.028 11.2913 114.432C15.9546 124.835 22.7702 134.132 31.2886 141.708Z" fill="#F15A24"/>
<path d="M583.871 141.034V62.3738L553.676 102.762C552.642 104.192 551.283 105.355 549.712 106.158C548.14 106.96 546.401 107.378 544.637 107.378C542.873 107.378 541.134 106.96 539.562 106.158C537.991 105.355 536.632 104.192 535.598 102.762L505.403 62.3738V141.034C505.377 144.001 504.18 146.838 502.073 148.926C499.966 151.015 497.119 152.187 494.152 152.187C491.185 152.187 488.339 151.015 486.231 148.926C484.124 146.838 482.927 144.001 482.901 141.034V28.7179C482.914 25.7463 484.107 22.9014 486.217 20.8093C488.328 18.7171 491.183 17.549 494.155 17.5619L494.248 17.5627C495.968 17.5457 497.667 17.938 499.206 18.7072C500.744 19.4763 502.077 20.6003 503.096 21.9863L544.636 77.375L586.18 21.9863C587.198 20.6003 588.531 19.4763 590.069 18.7071C591.607 17.9379 593.306 17.5456 595.026 17.5627C597.997 17.5248 600.862 18.6689 602.99 20.7433C605.118 22.8177 606.335 25.6525 606.373 28.6239L606.373 28.7179V141.034C606.348 144.002 605.151 146.839 603.044 148.928C600.937 151.017 598.089 152.189 595.122 152.189C592.155 152.189 589.307 151.017 587.2 148.928C585.093 146.839 583.896 144.002 583.871 141.034Z" fill="white"/>
<path d="M707.901 107.378C707.882 116.252 705.234 124.921 700.292 132.291C695.35 139.661 688.336 145.402 680.134 148.789C671.932 152.176 662.911 153.057 654.209 151.321C645.506 149.585 637.514 145.31 631.239 139.035C624.965 132.76 620.69 124.767 618.954 116.065C617.218 107.363 618.1 98.3417 621.487 90.1399C624.874 81.9382 630.615 74.9237 637.985 69.982C645.355 65.0402 654.024 62.3928 662.898 62.3738C674.832 62.3784 686.276 67.1215 694.715 75.5605C703.154 83.9995 707.897 95.4439 707.901 107.378ZM685.399 107.378C685.418 102.947 684.123 98.6094 681.677 94.9142C679.231 91.2191 675.744 88.3323 671.657 86.6189C667.57 84.9055 663.067 84.4425 658.717 85.2883C654.367 86.1342 650.366 88.251 647.219 91.371C644.072 94.4911 641.921 98.4742 641.038 102.817C640.154 107.159 640.579 111.666 642.257 115.768C643.935 119.869 646.792 123.381 650.466 125.858C654.14 128.336 658.466 129.669 662.898 129.688C665.84 129.7 668.756 129.133 671.479 128.019C674.202 126.905 676.68 125.265 678.769 123.193C680.859 121.122 682.519 118.659 683.657 115.945C684.795 113.232 685.387 110.321 685.399 107.378Z" fill="white"/>
<path d="M803 107.378C803 131.996 784.152 152.189 761.074 152.189C753.663 152.224 746.394 150.157 740.11 146.228C739.131 148.028 737.686 149.531 735.927 150.58C734.167 151.629 732.157 152.185 730.109 152.189C727.151 152.187 724.315 151.011 722.224 148.92C720.133 146.828 718.957 143.992 718.955 141.034V28.7178C718.98 25.7503 720.176 22.9128 722.283 20.8233C724.391 18.7337 727.238 17.5613 730.206 17.5613C733.173 17.5613 736.021 18.7337 738.128 20.8233C740.235 22.9128 741.432 25.7503 741.457 28.7178V67.5663C747.437 64.1699 754.196 62.3809 761.074 62.3737C784.152 62.3737 803 82.5675 803 107.378ZM780.691 107.378C780.691 94.8773 771.843 84.8754 761.073 84.8754C750.112 84.8754 741.456 94.8773 741.456 107.378C741.456 119.687 750.111 129.688 761.073 129.688C771.843 129.688 780.691 119.687 780.691 107.378Z" fill="white"/>
<path d="M300.323 136.804C300.986 138.504 301.226 140.34 301.023 142.154C300.821 143.967 300.182 145.705 299.161 147.217C298.14 148.73 296.767 149.972 295.161 150.838C293.555 151.704 291.762 152.168 289.938 152.189C287.692 152.183 285.501 151.501 283.649 150.231C281.796 148.962 280.369 147.165 279.552 145.073L271.09 124.111H218.971L210.508 145.073C209.691 147.165 208.264 148.962 206.412 150.231C204.559 151.501 202.368 152.183 200.122 152.189C197.174 152.157 194.356 150.971 192.271 148.886C190.186 146.801 189.001 143.982 188.968 141.034C188.925 139.586 189.187 138.144 189.737 136.804L234.548 24.6787C235.382 22.5794 236.827 20.7788 238.696 19.5101C240.565 18.2415 242.771 17.5632 245.03 17.5632C247.289 17.5632 249.496 18.2415 251.364 19.5101C253.233 20.7788 254.678 22.5794 255.512 24.6787L300.323 136.804ZM262.051 101.801L245.126 58.9124L228.01 101.801L262.051 101.801Z" fill="white"/>
<path d="M357.983 73.7213C357.976 75.1928 357.68 76.6485 357.111 78.0055C356.542 79.3624 355.711 80.594 354.666 81.6298C353.62 82.6656 352.382 83.4855 351.02 84.0425C349.658 84.5995 348.199 84.8828 346.728 84.8762L346.637 84.8755H335.481V141.034C335.479 143.992 334.304 146.828 332.212 148.92C330.121 151.011 327.285 152.187 324.327 152.189C321.349 152.195 318.489 151.027 316.365 148.939C314.241 146.852 313.025 144.012 312.98 141.034V84.8755H307.402C304.445 84.8735 301.609 83.6977 299.517 81.6064C297.426 79.515 296.249 76.6791 296.247 73.7213C296.242 70.7435 297.41 67.8834 299.498 65.7599C301.585 63.6365 304.425 62.4204 307.402 62.3749H312.98V51.2196C313.108 45.6011 314.488 40.0819 317.019 35.0639C322.596 23.7175 333.173 17.5637 346.637 17.5637C349.619 17.5405 352.488 18.7024 354.614 20.794C356.74 22.8855 357.949 25.7356 357.974 28.7178C358 31.7 356.84 34.5704 354.75 36.698C352.66 38.8256 349.811 40.0364 346.829 40.0643C346.765 40.0648 346.701 40.0648 346.637 40.0643C340.674 40.0643 338.559 42.3733 337.405 44.6802C336.25 46.6749 335.591 48.9174 335.481 51.2196V62.3749H346.637C349.644 62.3804 352.527 63.5776 354.654 65.7043C356.78 67.8309 357.977 70.7137 357.983 73.7213Z" fill="white"/>
<path d="M431.703 73.7213C431.696 75.1927 431.4 76.6485 430.831 78.0054C430.261 79.3624 429.43 80.5939 428.385 81.6298C427.34 82.6656 426.101 83.4855 424.739 84.0425C423.377 84.5995 421.919 84.8828 420.447 84.8762L420.356 84.8754H409.201V141.034C409.199 143.992 408.023 146.828 405.932 148.919C403.84 151.011 401.005 152.187 398.047 152.189C395.069 152.195 392.208 151.027 390.085 148.939C387.961 146.852 386.745 144.012 386.699 141.034V84.8754H381.122C378.164 84.8735 375.328 83.6977 373.237 81.6063C371.145 79.515 369.969 76.679 369.967 73.7213C369.962 70.7434 371.129 67.8834 373.217 65.7599C375.305 63.6365 378.145 62.4204 381.122 62.3748H386.699V51.2196C386.828 45.601 388.208 40.0819 390.738 35.0639C396.315 23.7175 406.893 17.5637 420.356 17.5637C421.835 17.5489 423.302 17.8258 424.674 18.3785C426.045 18.9312 427.295 19.749 428.35 20.7849C429.405 21.8209 430.246 23.0547 430.824 24.4159C431.402 25.777 431.706 27.2388 431.719 28.7176C431.732 30.1964 431.453 31.6631 430.898 33.034C430.343 34.4048 429.524 35.6529 428.486 36.7067C427.449 37.7606 426.214 38.5995 424.852 39.1757C423.49 39.7518 422.027 40.0537 420.549 40.0642C420.485 40.0648 420.42 40.0648 420.356 40.0642C414.394 40.0642 412.279 42.3733 411.124 44.6801C409.97 46.6749 409.31 48.9173 409.201 51.2196V62.3749H420.356C423.364 62.3804 426.247 63.5776 428.373 65.7043C430.5 67.8309 431.697 70.7137 431.703 73.7213Z" fill="white"/>
<path d="M455.783 45.8348C453.566 45.8157 451.404 45.1421 449.569 43.8985C447.733 42.6549 446.306 40.8968 445.467 38.8449C444.627 36.793 444.412 34.5387 444.849 32.3652C445.287 30.1917 446.356 28.1958 447.924 26.6281C449.492 25.0604 451.488 23.9908 453.661 23.5536C455.835 23.1164 458.089 23.3311 460.141 24.1707C462.193 25.0103 463.951 26.4375 465.194 28.2729C466.438 30.1083 467.112 32.2703 467.131 34.4873C467.125 37.4952 465.928 40.3783 463.801 42.5052C461.674 44.6321 458.791 45.8294 455.783 45.8348ZM444.629 141.034V73.7213C444.624 70.7437 445.791 67.8837 447.879 65.7603C449.966 63.6369 452.806 62.4207 455.783 62.3749C458.781 62.4129 461.645 63.6205 463.765 65.7401C465.885 67.8598 467.092 70.7238 467.131 73.7213V141.034C467.085 144.012 465.869 146.852 463.745 148.939C461.621 151.027 458.761 152.195 455.783 152.189C452.825 152.187 449.989 151.011 447.898 148.92C445.807 146.828 444.631 143.992 444.629 141.034Z" fill="white"/>
<g clip-path="url(#clip0_106_153)">
<path d="M583.871 141.035V62.3747L553.676 102.763C552.642 104.193 551.283 105.356 549.712 106.158C548.14 106.961 546.401 107.379 544.637 107.379C542.873 107.379 541.134 106.961 539.562 106.158C537.991 105.356 536.632 104.193 535.598 102.763L505.403 62.3747V141.035C505.377 144.002 504.18 146.838 502.073 148.927C499.966 151.016 497.119 152.188 494.152 152.188C491.185 152.188 488.339 151.016 486.231 148.927C484.124 146.838 482.927 144.002 482.901 141.035V28.7188C482.914 25.7471 484.107 22.9023 486.217 20.8101C488.328 18.718 491.183 17.5498 494.155 17.5627L494.248 17.5636C495.968 17.5466 497.667 17.9388 499.206 18.708C500.744 19.4772 502.077 20.6012 503.096 21.9872L544.636 77.3758L586.18 21.9872C587.198 20.6011 588.531 19.4771 590.069 18.7079C591.607 17.9388 593.306 17.5465 595.026 17.5635C597.997 17.5257 600.862 18.6698 602.99 20.7442C605.118 22.8186 606.335 25.6533 606.373 28.6248L606.373 28.7188V141.035C606.348 144.002 605.151 146.839 603.044 148.929C600.937 151.018 598.089 152.19 595.122 152.19C592.155 152.19 589.307 151.018 587.2 148.929C585.093 146.839 583.896 144.002 583.871 141.035Z" fill="#1B1F26"/>
<path d="M707.901 107.379C707.882 116.253 705.234 124.922 700.292 132.292C695.35 139.662 688.336 145.403 680.134 148.79C671.932 152.177 662.911 153.058 654.209 151.322C645.506 149.586 637.514 145.311 631.239 139.036C624.965 132.761 620.69 124.768 618.954 116.066C617.218 107.364 618.1 98.3426 621.487 90.1409C624.874 81.9391 630.615 74.9247 637.985 69.9829C645.355 65.0412 654.024 62.3937 662.898 62.3748C674.832 62.3794 686.276 67.1224 694.715 75.5615C703.154 84.0005 707.897 95.4448 707.901 107.379ZM685.399 107.379C685.418 102.948 684.123 98.6103 681.677 94.9152C679.231 91.22 675.744 88.3333 671.657 86.6199C667.57 84.9065 663.067 84.4434 658.717 85.2893C654.367 86.1352 650.366 88.252 647.219 91.372C644.072 94.4921 641.921 98.4752 641.038 102.818C640.154 107.16 640.579 111.667 642.257 115.769C643.935 119.87 646.792 123.382 650.466 125.859C654.14 128.337 658.466 129.67 662.898 129.689C665.84 129.701 668.756 129.134 671.479 128.02C674.202 126.906 676.68 125.266 678.769 123.194C680.858 121.123 682.519 118.66 683.657 115.946C684.795 113.233 685.387 110.322 685.399 107.379Z" fill="#1B1F26"/>
<path d="M803 107.379C803 131.997 784.152 152.19 761.074 152.19C753.663 152.225 746.394 150.158 740.11 146.229C739.131 148.028 737.686 149.532 735.927 150.581C734.167 151.629 732.157 152.186 730.109 152.19C727.151 152.188 724.315 151.012 722.224 148.92C720.133 146.829 718.957 143.993 718.955 141.035V28.7188C718.98 25.7513 720.176 22.9138 722.283 20.8243C724.391 18.7347 727.238 17.5623 730.206 17.5623C733.173 17.5623 736.021 18.7347 738.128 20.8243C740.235 22.9138 741.432 25.7513 741.457 28.7188V67.5673C747.437 64.1709 754.196 62.3819 761.074 62.3747C784.152 62.3747 803 82.5684 803 107.379ZM780.691 107.379C780.691 94.8782 771.843 84.8764 761.073 84.8764C750.112 84.8764 741.456 94.8782 741.456 107.379C741.456 119.688 750.111 129.689 761.073 129.689C771.843 129.689 780.691 119.688 780.691 107.379Z" fill="#1B1F26"/>
<path d="M300.323 136.805C300.986 138.505 301.226 140.341 301.023 142.155C300.821 143.968 300.182 145.706 299.161 147.218C298.14 148.731 296.767 149.973 295.161 150.839C293.555 151.705 291.762 152.169 289.938 152.19C287.692 152.184 285.501 151.502 283.649 150.232C281.796 148.963 280.369 147.166 279.552 145.074L271.09 124.112H218.971L210.508 145.074C209.691 147.166 208.264 148.963 206.412 150.232C204.559 151.502 202.368 152.184 200.122 152.19C197.174 152.157 194.356 150.972 192.271 148.887C190.186 146.802 189.001 143.983 188.968 141.035C188.925 139.587 189.187 138.145 189.737 136.805L234.548 24.6797C235.382 22.5804 236.827 20.7798 238.696 19.5111C240.565 18.2425 242.771 17.5642 245.03 17.5642C247.289 17.5642 249.496 18.2425 251.364 19.5111C253.233 20.7798 254.678 22.5804 255.512 24.6797L300.323 136.805ZM262.051 101.802L245.126 58.9134L228.01 101.802L262.051 101.802Z" fill="#1B1F26"/>
<path d="M357.983 73.7223C357.976 75.1937 357.68 76.6495 357.111 78.0064C356.542 79.3634 355.711 80.5949 354.666 81.6308C353.62 82.6666 352.382 83.4864 351.02 84.0435C349.658 84.6005 348.199 84.8838 346.728 84.8772L346.637 84.8764H335.481V141.035C335.479 143.993 334.304 146.829 332.212 148.92C330.121 151.012 327.285 152.188 324.327 152.19C321.349 152.196 318.489 151.028 316.365 148.94C314.241 146.853 313.025 144.013 312.98 141.035V84.8764H307.402C304.445 84.8745 301.609 83.6987 299.517 81.6073C297.426 79.516 296.249 76.68 296.247 73.7223C296.242 70.7444 297.41 67.8844 299.498 65.7609C301.585 63.6375 304.425 62.4214 307.402 62.3758H312.98V51.2206C313.108 45.602 314.488 40.0829 317.019 35.0649C322.596 23.7185 333.173 17.5647 346.637 17.5647C349.619 17.5415 352.488 18.7034 354.614 20.7949C356.74 22.8865 357.949 25.7366 357.974 28.7188C358 31.701 356.84 34.5714 354.75 36.699C352.66 38.8266 349.811 40.0374 346.829 40.0653C346.765 40.0658 346.701 40.0658 346.637 40.0653C340.674 40.0653 338.559 42.3743 337.405 44.6812C336.25 46.6759 335.591 48.9184 335.481 51.2206V62.3759H346.637C349.644 62.3814 352.527 63.5786 354.654 65.7052C356.78 67.8319 357.977 70.7147 357.983 73.7223Z" fill="#1B1F26"/>
<path d="M431.703 73.7222C431.696 75.1937 431.4 76.6495 430.831 78.0064C430.261 79.3634 429.43 80.5949 428.385 81.6308C427.34 82.6666 426.101 83.4864 424.739 84.0435C423.377 84.6005 421.919 84.8838 420.447 84.8772L420.356 84.8764H409.201V141.035C409.199 143.993 408.023 146.829 405.932 148.92C403.84 151.012 401.005 152.188 398.047 152.19C395.069 152.196 392.208 151.028 390.085 148.94C387.961 146.853 386.745 144.013 386.699 141.035V84.8764H381.122C378.164 84.8744 375.328 83.6987 373.237 81.6073C371.145 79.516 369.969 76.68 369.967 73.7222C369.962 70.7444 371.129 67.8843 373.217 65.7609C375.305 63.6374 378.145 62.4214 381.122 62.3758H386.699V51.2205C386.828 45.602 388.208 40.0829 390.738 35.0649C396.315 23.7185 406.893 17.5646 420.356 17.5646C421.835 17.5499 423.302 17.8268 424.674 18.3795C426.045 18.9322 427.295 19.7499 428.35 20.7859C429.405 21.8218 430.246 23.0557 430.824 24.4168C431.402 25.778 431.706 27.2398 431.719 28.7186C431.732 30.1973 431.453 31.6641 430.898 33.0349C430.343 34.4058 429.524 35.6538 428.486 36.7077C427.449 37.7615 426.214 38.6005 424.852 39.1766C423.49 39.7528 422.027 40.0547 420.549 40.0652C420.485 40.0658 420.42 40.0658 420.356 40.0652C414.394 40.0652 412.279 42.3743 411.124 44.6811C409.97 46.6758 409.31 48.9183 409.201 51.2205V62.3758H420.356C423.364 62.3814 426.247 63.5786 428.373 65.7052C430.5 67.8319 431.697 70.7147 431.703 73.7222Z" fill="#1B1F26"/>
<path d="M455.783 45.8357C453.566 45.8167 451.404 45.1431 449.569 43.8995C447.733 42.6559 446.306 40.8978 445.467 38.8459C444.627 36.7939 444.412 34.5397 444.849 32.3662C445.287 30.1927 446.356 28.1967 447.924 26.629C449.492 25.0613 451.488 23.9917 453.661 23.5546C455.835 23.1174 458.089 23.3321 460.141 24.1717C462.193 25.0113 463.951 26.4384 465.194 28.2739C466.438 30.1093 467.112 32.2713 467.131 34.4882C467.125 37.4961 465.928 40.3793 463.801 42.5062C461.674 44.6331 458.791 45.8304 455.783 45.8357ZM444.629 141.035V73.7223C444.624 70.7447 445.791 67.8847 447.879 65.7613C449.966 63.6378 452.806 62.4217 455.783 62.3759C458.781 62.4139 461.645 63.6214 463.765 65.7411C465.884 67.8608 467.092 70.7247 467.131 73.7223V141.035C467.085 144.013 465.869 146.853 463.745 148.94C461.621 151.028 458.761 152.196 455.783 152.19C452.825 152.188 449.989 151.012 447.898 148.921C445.807 146.829 444.631 143.993 444.629 141.035Z" fill="#1B1F26"/>
</g>
<defs>
<clipPath id="clip0_106_153">
<rect width="614.037" height="134.63" fill="white" transform="translate(188.963 17.5613)"/>
</clipPath>
</defs>
</svg>
