<svg width="50" height="43" viewBox="0 0 50 43" fill="none" xmlns="http://www.w3.org/2000/svg">
<path fill-rule="evenodd" clip-rule="evenodd" d="M0 21.2698C0 20.4648 0.329205 19.6928 0.91519 19.1236C1.50117 18.5544 2.29594 18.2346 3.12465 18.2346H39.3267L25.9095 5.20768C25.323 4.63775 24.9932 3.86478 24.9932 3.05878C24.9932 2.25279 25.323 1.4798 25.9095 0.909878C26.4963 0.339955 27.292 0.0197754 28.1217 0.0197754C28.9515 0.0197754 29.7475 0.339955 30.334 0.909878L49.082 19.1209C49.373 19.4028 49.6038 19.7378 49.7615 20.1065C49.919 20.4753 50 20.8706 50 21.2698C50 21.669 49.919 22.0643 49.7615 22.4331C49.6038 22.8018 49.373 23.1367 49.082 23.4187L30.334 41.6298C29.7475 42.1995 28.9515 42.5198 28.1217 42.5198C27.292 42.5198 26.4963 42.1995 25.9095 41.6298C25.323 41.0598 24.9932 40.2868 24.9932 39.4808C24.9932 38.6748 25.323 37.9018 25.9095 37.3318L39.3267 24.305H3.12465C2.29594 24.305 1.50117 23.9852 0.91519 23.416C0.329205 22.8468 0 22.0748 0 21.2698Z" fill="#F15A24"/>
</svg>
