<svg width="50" height="43" viewBox="0 0 50 43" fill="none" xmlns="http://www.w3.org/2000/svg">
<path fill-rule="evenodd" clip-rule="evenodd" d="M50 21.2698C50 22.0748 49.6708 22.8468 49.0848 23.416C48.4988 23.9852 47.7041 24.305 46.8753 24.305L10.6733 24.305L24.0905 37.3319C24.677 37.9018 25.0068 38.6748 25.0068 39.4808C25.0068 40.2868 24.677 41.0597 24.0905 41.6297C23.5037 42.1996 22.708 42.5198 21.8783 42.5198C21.0485 42.5198 20.2525 42.1996 19.666 41.6297L0.918003 23.4187C0.627003 23.1367 0.396248 22.8018 0.238499 22.4331C0.0810013 22.0643 0 21.669 0 21.2698C0 20.8706 0.0810013 20.4753 0.238499 20.1065C0.396248 19.7378 0.627003 19.4028 0.918003 19.1209L19.666 0.909779C20.2525 0.340027 21.0485 0.0197754 21.8783 0.0197754C22.708 0.0197754 23.5037 0.340027 24.0905 0.909779C24.677 1.47978 25.0068 2.25278 25.0068 3.05878C25.0068 3.86478 24.677 4.63778 24.0905 5.20778L10.6733 18.2346L46.8753 18.2346C47.7041 18.2346 48.4988 18.5544 49.0848 19.1236C49.6708 19.6928 50 20.4648 50 21.2698Z" fill="#F15A24"/>
</svg>
