<svg width="35" height="35" viewBox="0 0 35 35" fill="none" xmlns="http://www.w3.org/2000/svg">
<path d="M17.5345 5.82498C11.0903 5.82498 5.8476 11.0694 5.8476 17.5157C5.8476 23.9616 11.0903 29.2053 17.5345 29.2053C23.9804 29.2053 29.2245 23.9613 29.2245 17.5157C29.2245 17.227 28.9904 16.9933 28.7021 16.9933H18.0568V6.34737C18.0568 6.05866 17.8232 5.82498 17.5345 5.82498ZM28.1671 18.0381C27.8938 23.6659 23.2292 28.1606 17.5345 28.1606C11.6663 28.1606 6.89237 23.3852 6.89237 17.5157C6.89237 11.8206 11.3856 7.15568 17.0121 6.8823V17.5157C17.0121 17.804 17.2458 18.0381 17.5345 18.0381H28.1671Z" fill="black"/>
<path d="M27.4741 27.5396C27.1879 27.8217 26.8838 28.0909 26.5725 28.3483C26.0243 28.7993 25.4406 29.2137 24.834 29.5776C18.1255 33.6059 9.39079 31.4265 5.36317 24.7198C3.41153 21.4701 2.84213 17.6553 3.76014 13.9774C4.67815 10.3001 6.97318 7.20025 10.2228 5.24896C13.4724 3.29697 17.2876 2.72757 20.9645 3.64523C24.5324 4.53538 27.5535 6.72453 29.5128 9.8216L28.2985 9.4312C28.0233 9.34309 27.7294 9.49458 27.6413 9.76866C27.5528 10.0434 27.704 10.3374 27.9787 10.4258L30.4051 11.2056C30.458 11.2226 30.5123 11.2307 30.5649 11.2307C30.785 11.2307 30.9894 11.091 31.0615 10.8709L31.8695 8.40488C31.9593 8.13045 31.8096 7.83548 31.5355 7.74563C31.2604 7.65543 30.9661 7.80518 30.8763 8.07926L30.457 9.35946C28.3552 5.98274 25.0854 3.59613 21.2177 2.6311C17.2691 1.64692 13.1736 2.25812 9.68472 4.35324C6.19621 6.44836 3.73193 9.77667 2.74636 13.7245C1.76079 17.6731 2.37198 21.769 4.46711 25.2578C7.32109 30.0098 12.3747 32.6444 17.5519 32.6444C20.2202 32.6444 22.922 31.944 25.3717 30.4733C25.6367 30.3142 25.8965 30.1439 26.1528 29.968C26.1643 29.9614 26.1769 29.9586 26.1877 29.9513C26.499 29.7375 26.7985 29.5142 27.0768 29.2893C27.1266 29.2492 27.1746 29.2057 27.2241 29.1649C27.2582 29.1371 27.2934 29.1102 27.3272 29.082C27.3362 29.0744 27.3428 29.0653 27.3515 29.0573C27.6455 28.8097 27.9342 28.553 28.2076 28.2838C28.413 28.0815 28.4158 27.7506 28.2131 27.5452C28.0108 27.3397 27.6792 27.3369 27.4741 27.5396Z" fill="black"/>
<path d="M30.8961 23.5785C30.6381 23.4486 30.3239 23.5517 30.194 23.8091C29.8186 24.5526 29.3802 25.2617 28.8916 25.9167C28.7192 26.148 28.7669 26.4753 28.9978 26.6481C29.0918 26.7181 29.2012 26.7519 29.3098 26.7519C29.469 26.7519 29.6264 26.6794 29.7288 26.5419C30.2536 25.838 30.7238 25.0774 31.1267 24.2806C31.2566 24.0226 31.1535 23.7084 30.8961 23.5785Z" fill="black"/>
<path d="M32.1056 19.4903C31.8235 19.4415 31.5502 19.6279 31.4986 19.9117C31.3597 20.6834 31.1559 21.4485 30.8937 22.1851C30.7969 22.4568 30.939 22.7559 31.2106 22.8524C31.2684 22.8733 31.3276 22.8827 31.3858 22.8827C31.6003 22.8827 31.8016 22.7493 31.8779 22.5355C32.1593 21.7449 32.3776 20.9248 32.527 20.0973C32.5782 19.8135 32.3898 19.5415 32.1056 19.4903Z" fill="black"/>
</svg>
