<svg width="112" height="72" viewBox="0 0 112 72" fill="none" xmlns="http://www.w3.org/2000/svg">
<path d="M36.1487 40.9836C36.4158 41.0537 36.6892 40.894 36.7592 40.6269C36.8293 40.3598 36.6696 40.0864 36.4025 40.0164L36.1487 40.9836ZM1.77559 1.5V1H1.20023L1.28048 1.56974L1.77559 1.5ZM11.7756 28L12.1463 27.6645L12.1463 27.6645L11.7756 28ZM6.37427 9.29823C6.53897 9.51987 6.85217 9.56603 7.07382 9.40132C7.29546 9.23662 7.34162 8.92342 7.17691 8.70177L6.37427 9.29823ZM1.62934 1.35335C1.82449 1.15798 1.82432 0.8414 1.62894 0.646248C1.43357 0.451095 1.11699 0.451274 0.921837 0.646646L1.62934 1.35335ZM0.776336 11.0273C0.791427 11.3031 1.02718 11.5143 1.30291 11.4993C1.57864 11.4842 1.78993 11.2484 1.77484 10.9727L0.776336 11.0273ZM4.27559 5.5L3.86036 5.77853L4.27559 5.5ZM1.80577 1.55048L1.37556 1.80527L1.37678 1.80732L1.80577 1.55048ZM36.2756 40.5C36.4025 40.0164 36.4025 40.0164 36.4024 40.0164C36.4023 40.0163 36.4022 40.0163 36.402 40.0162C36.4016 40.0161 36.4009 40.0159 36.3999 40.0157C36.398 40.0152 36.3951 40.0144 36.3912 40.0134C36.3832 40.0113 36.3712 40.0081 36.3552 40.0038C36.3231 39.9952 36.275 39.9822 36.2117 39.9649C36.0851 39.9302 35.8977 39.8781 35.6563 39.8089C35.1733 39.6704 34.4742 39.4635 33.6122 39.1902C31.8877 38.6434 29.514 37.8319 26.9172 36.7734C21.7025 34.6477 15.6694 31.5571 12.1463 27.6645L11.4049 28.3355C15.0895 32.4067 21.3064 35.5661 26.5397 37.6994C29.167 38.7704 31.5669 39.5907 33.3099 40.1434C34.1817 40.4198 34.8898 40.6294 35.3807 40.7702C35.6261 40.8405 35.8173 40.8937 35.9476 40.9294C36.0127 40.9472 36.0625 40.9606 36.0963 40.9697C36.1133 40.9742 36.1261 40.9777 36.1349 40.98C36.1393 40.9811 36.1426 40.982 36.1449 40.9826C36.1461 40.9829 36.147 40.9832 36.1476 40.9833C36.1479 40.9834 36.1482 40.9835 36.1484 40.9835C36.1486 40.9836 36.1487 40.9836 36.2756 40.5ZM12.1463 27.6645C8.51844 23.6561 6.04299 17.1296 4.47355 11.5395C3.69203 8.75584 3.14087 6.22601 2.78515 4.39214C2.60734 3.47546 2.47849 2.73333 2.3942 2.22111C2.35206 1.96502 2.32106 1.76645 2.30066 1.63232C2.29046 1.56526 2.28291 1.51431 2.27794 1.48034C2.27546 1.46336 2.27361 1.45062 2.27241 1.44224C2.27181 1.43805 2.27137 1.43495 2.27108 1.43294C2.27094 1.43194 2.27084 1.43122 2.27077 1.43077C2.27074 1.43055 2.27072 1.43042 2.27071 1.43031C2.2707 1.43025 2.2707 1.43026 1.77559 1.5C1.28048 1.56974 1.2805 1.56989 1.28053 1.57011C1.28055 1.57028 1.28059 1.57057 1.28064 1.5709C1.28074 1.57157 1.28087 1.57251 1.28104 1.57373C1.28139 1.57617 1.28189 1.57971 1.28256 1.58435C1.28389 1.59362 1.28586 1.60725 1.28848 1.62514C1.29372 1.66092 1.30154 1.71373 1.31203 1.7827C1.33301 1.92062 1.36464 2.1232 1.40747 2.38349C1.49314 2.90403 1.62364 3.65557 1.80345 4.58256C2.16297 6.43603 2.72009 8.9935 3.51077 11.8098C5.08571 17.4194 7.61026 24.1429 11.4049 28.3355L12.1463 27.6645ZM0.921837 0.646646C0.81301 0.755596 0.75445 0.889453 0.720504 0.983846C0.682863 1.08852 0.654578 1.20584 0.632157 1.32608C0.587193 1.56722 0.55691 1.8697 0.536595 2.21051C0.495796 2.89498 0.492256 3.78937 0.510573 4.77499C0.547258 6.74896 0.672646 9.13271 0.776336 11.0273L1.77484 10.9727C1.67103 9.07583 1.5467 6.70959 1.5104 4.75641C1.49223 3.77847 1.49638 2.91501 1.53482 2.27001C1.55413 1.9461 1.58136 1.69095 1.61521 1.50939C1.6322 1.41828 1.64866 1.35798 1.66151 1.32225C1.67805 1.27624 1.67574 1.3069 1.62934 1.35335L0.921837 0.646646ZM3.86036 5.77853C4.33354 6.48396 4.96299 7.36507 5.4717 8.06662C5.72655 8.41809 5.95204 8.72579 6.11384 8.94565C6.19475 9.05559 6.25977 9.14361 6.30459 9.20421C6.32701 9.2345 6.34438 9.25794 6.35617 9.27384C6.36206 9.28179 6.36657 9.28786 6.3696 9.29195C6.37112 9.294 6.37228 9.29555 6.37306 9.2966C6.37345 9.29712 6.37374 9.29752 6.37394 9.2978C6.37405 9.29793 6.37412 9.29804 6.37418 9.29811C6.3742 9.29814 6.37423 9.29817 6.37424 9.29819C6.37426 9.29821 6.37427 9.29823 6.77559 9C7.17691 8.70177 7.17691 8.70177 7.1769 8.70176C7.17689 8.70175 7.17688 8.70173 7.17686 8.7017C7.17682 8.70164 7.17675 8.70156 7.17666 8.70144C7.17648 8.7012 7.17621 8.70083 7.17585 8.70034C7.17512 8.69935 7.17401 8.69787 7.17254 8.69589C7.1696 8.69193 7.16521 8.686 7.15942 8.67819C7.14783 8.66258 7.13068 8.63943 7.1085 8.60944C7.06412 8.54946 6.99961 8.46213 6.91925 8.35293C6.75851 8.1345 6.53444 7.82875 6.28126 7.47959C5.77389 6.77988 5.15334 5.91099 4.69082 5.22147L3.86036 5.77853ZM1.77559 1.5C1.77559 2 1.73721 1.99852 1.69906 1.99411C1.68815 1.9923 1.658 1.98598 1.63889 1.98095C1.60456 1.97119 1.57668 1.95929 1.55634 1.94937C1.51707 1.93021 1.48851 1.90984 1.47296 1.89801C1.44199 1.87447 1.42079 1.8525 1.41273 1.84399C1.39447 1.82474 1.38188 1.80826 1.37836 1.80365C1.36899 1.7914 1.36228 1.78138 1.36077 1.77914C1.3562 1.77235 1.35288 1.76703 1.35242 1.7663C1.35063 1.76344 1.34986 1.76213 1.35143 1.76473C1.35411 1.76917 1.36078 1.78031 1.37556 1.80527L2.23598 1.29569C2.22087 1.27017 2.21245 1.25607 2.20751 1.24789C2.20527 1.24418 2.20256 1.23971 2.19978 1.23528C2.19883 1.23376 2.19525 1.22804 2.19055 1.22105C2.18898 1.21872 2.18223 1.20865 2.17284 1.19637C2.16931 1.19176 2.15671 1.17527 2.13846 1.15601C2.13039 1.1475 2.10919 1.12553 2.07822 1.10199C2.06267 1.09016 2.03411 1.06979 1.99484 1.05063C1.97449 1.04071 1.94661 1.02881 1.91229 1.01905C1.89318 1.01402 1.86303 1.0077 1.85212 1.00589C1.81397 1.00148 1.77559 1 1.77559 1.5ZM1.37678 1.80732C1.59055 2.16437 2.91225 4.3651 3.86036 5.77853L4.69082 5.22147C3.75936 3.83284 2.45055 1.65406 2.23477 1.29364L1.37678 1.80732Z" fill="#423F43"/>
<path d="M50.3945 40.2021L46.9731 43.5H44.9966L49.1323 39.4341L47.0107 35.7495H48.708L50.6309 39.0796H50.6953L51.4097 35.7495H53.0049L52.2905 39.085H52.3604L55.7119 35.7495H57.5112L53.5903 39.708L55.8516 43.5H54.1436L52.1401 40.2021H52.0649L51.356 43.5H49.7607L50.4697 40.2021H50.3945ZM58.0537 43.5H56.6035L57.8281 37.7261H59.8047L60.4976 41.416H60.5674L62.8984 37.7261H64.8857L63.6611 43.5H62.2109L63.022 39.6919H62.9468L60.707 43.1724H59.6704L58.9346 39.6919H58.8647L58.0537 43.5ZM66.2715 43.5H64.7568L65.9814 37.7261H67.4907L66.728 41.2549H66.8032L69.8862 37.7261H71.4009L70.1763 43.5H68.6616L69.4351 39.9175H69.3599L66.2715 43.5ZM77.2231 37.5972C78.7271 37.5972 79.667 38.5425 79.667 39.6865C79.667 39.8262 79.667 39.8369 79.667 39.8638H78.1953C78.1846 39.3105 77.8032 38.897 77.1641 38.897C76.2725 38.897 75.6494 39.7886 75.6494 41.0615C75.6494 41.8403 76.063 42.3237 76.6968 42.3237C77.293 42.3237 77.7334 41.9692 77.9053 41.3999H79.3823C79.1567 42.7051 78.0503 43.6289 76.6431 43.6289C75.0479 43.6289 74.1079 42.6191 74.1079 41.126C74.1079 39.0312 75.3433 37.5972 77.2231 37.5972ZM86.1982 37.7261L83.2871 40.5405L85.0381 43.5H83.3086L81.853 41.0347H81.8154L81.2891 43.5H79.7529L80.9775 37.7261H82.5137L82.0195 40.041H82.0518L84.4097 37.7261H86.1982ZM88.6099 42.3613C89.5283 42.3613 90.2051 41.4321 90.2051 40.2183C90.2051 39.4019 89.7754 38.8647 89.1094 38.8647C88.1855 38.8647 87.5088 39.7832 87.5088 41.0078C87.5088 41.8188 87.9438 42.3613 88.6099 42.3613ZM89.1631 37.5972C90.7314 37.5972 91.7681 38.6338 91.7681 40.1807C91.7681 42.1572 90.4146 43.6289 88.5615 43.6289C86.9932 43.6289 85.9565 42.5923 85.9565 41.04C85.9565 39.0635 87.3101 37.5972 89.1631 37.5972ZM95.2861 42.2969C96.1724 42.2969 96.8652 41.3892 96.8652 40.186C96.8652 39.3857 96.4463 38.8916 95.7695 38.8916C94.8242 38.8916 94.1582 39.9014 94.1582 41.0454C94.1582 41.7866 94.604 42.2969 95.2861 42.2969ZM93.1646 45.3853H91.6392L93.2666 37.7261H94.7651L94.5771 38.5854H94.6094C95.0068 37.9839 95.6782 37.6348 96.4087 37.6348C97.6548 37.6348 98.4229 38.5317 98.4229 39.9551C98.4229 42.0444 97.1982 43.5913 95.5654 43.5913C94.7114 43.5913 94.0562 43.1348 93.8306 42.415H93.7983L93.1646 45.3853ZM100.679 39.9927H103.182C103.187 39.9551 103.192 39.8853 103.192 39.8315C103.192 39.2622 102.827 38.7734 102.102 38.7734C101.388 38.7734 100.861 39.2891 100.679 39.9927ZM101.64 43.6289C100.034 43.6289 99.0889 42.6084 99.0889 41.0293C99.0889 39.085 100.335 37.5972 102.156 37.5972C103.644 37.5972 104.632 38.5586 104.632 40.0679C104.632 40.3472 104.61 40.6909 104.551 40.9648H100.523C100.518 41.0293 100.512 41.0884 100.512 41.1475C100.512 41.9102 100.969 42.4365 101.699 42.4365C102.312 42.4365 102.757 42.125 102.935 41.6631H104.379C104.084 42.8125 103.031 43.6289 101.64 43.6289ZM106.898 39.9927H109.401C109.407 39.9551 109.412 39.8853 109.412 39.8315C109.412 39.2622 109.047 38.7734 108.322 38.7734C107.607 38.7734 107.081 39.2891 106.898 39.9927ZM107.86 43.6289C106.254 43.6289 105.309 42.6084 105.309 41.0293C105.309 39.085 106.555 37.5972 108.375 37.5972C109.863 37.5972 110.852 38.5586 110.852 40.0679C110.852 40.3472 110.83 40.6909 110.771 40.9648H106.743C106.737 41.0293 106.732 41.0884 106.732 41.1475C106.732 41.9102 107.188 42.4365 107.919 42.4365C108.531 42.4365 108.977 42.125 109.154 41.6631H110.599C110.304 42.8125 109.251 43.6289 107.86 43.6289Z" fill="#F15A24"/>
</svg>
