<svg width="224" height="68" viewBox="0 0 224 68" fill="none" xmlns="http://www.w3.org/2000/svg">
<g clip-path="url(#clip0_456_149)">
<path d="M144.898 45.2757V16.8761L133.999 31.458C133.625 31.974 133.135 32.3941 132.568 32.6838C132 32.9735 131.373 33.1245 130.736 33.1245C130.099 33.1245 129.471 32.9735 128.904 32.6838C128.337 32.3941 127.846 31.974 127.473 31.458L116.573 16.8761V45.2757C116.564 46.3468 116.132 47.3709 115.371 48.125C114.61 48.8791 113.583 49.3022 112.512 49.3022C111.441 49.3022 110.413 48.8791 109.652 48.125C108.892 47.3709 108.46 46.3468 108.45 45.2757V4.72497C108.455 3.65208 108.885 2.62498 109.647 1.86963C110.409 1.11427 111.44 0.692529 112.512 0.697184L112.546 0.697481C113.167 0.691348 113.78 0.832976 114.336 1.11067C114.891 1.38837 115.372 1.79418 115.74 2.29459L130.735 22.2921L145.732 2.29459C146.099 1.79417 146.581 1.38835 147.136 1.11065C147.691 0.832945 148.304 0.691321 148.925 0.697472C149.998 0.683805 151.032 1.09688 151.8 1.84581C152.568 2.59475 153.007 3.61821 153.021 4.69103L153.021 4.72497V45.2757C153.012 46.347 152.58 47.3713 151.82 48.1256C151.059 48.8799 150.031 49.3031 148.96 49.3031C147.889 49.3031 146.861 48.8799 146.1 48.1256C145.339 47.3713 144.907 46.347 144.898 45.2757Z" fill="#1B1F26"/>
<path d="M189.671 33.1246C189.665 36.3283 188.709 39.4582 186.925 42.1191C185.141 44.78 182.609 46.8526 179.648 48.0754C176.687 49.2982 173.431 49.6163 170.289 48.9896C167.148 48.3628 164.263 46.8193 161.998 44.5539C159.733 42.2885 158.19 39.4027 157.563 36.2609C156.937 33.1191 157.255 29.862 158.477 26.9008C159.7 23.9397 161.772 21.4072 164.433 19.623C167.093 17.8388 170.223 16.883 173.426 16.8761C177.734 16.8778 181.865 18.5902 184.912 21.6371C187.958 24.6839 189.67 28.8158 189.671 33.1246ZM181.549 33.1246C181.556 31.5247 181.088 29.9586 180.205 28.6245C179.322 27.2904 178.063 26.2482 176.588 25.6296C175.113 25.011 173.487 24.8438 171.917 25.1492C170.347 25.4546 168.902 26.2189 167.766 27.3453C166.63 28.4718 165.854 29.9098 165.535 31.4777C165.216 33.0455 165.369 34.6727 165.975 36.1535C166.581 37.6342 167.612 38.902 168.938 39.7966C170.265 40.6912 171.826 41.1723 173.426 41.1792C174.488 41.1837 175.541 40.979 176.524 40.5767C177.507 40.1744 178.401 39.5824 179.155 38.8344C179.91 38.0865 180.509 37.1973 180.92 36.2176C181.33 35.2379 181.544 34.1869 181.549 33.1246Z" fill="#1B1F26"/>
<path d="M224 33.1246C224 42.0124 217.196 49.3032 208.865 49.3032C206.19 49.3157 203.566 48.5694 201.298 47.1508C200.944 47.8006 200.423 48.3433 199.788 48.722C199.152 49.1007 198.427 49.3014 197.688 49.3032C196.62 49.3024 195.596 48.8778 194.841 48.1226C194.086 47.3675 193.662 46.3436 193.661 45.2757V4.72498C193.67 3.65359 194.102 2.62915 194.863 1.87473C195.623 1.12032 196.651 0.697021 197.722 0.697021C198.794 0.697021 199.822 1.12032 200.582 1.87473C201.343 2.62915 201.775 3.65359 201.784 4.72498V18.7509C203.943 17.5246 206.382 16.8787 208.865 16.8761C217.196 16.8761 224 24.1669 224 33.1246ZM215.947 33.1246C215.947 28.6112 212.753 25.0001 208.865 25.0001C204.908 25.0001 201.784 28.6112 201.784 33.1246C201.784 37.5685 204.908 41.1792 208.865 41.1792C212.753 41.1792 215.947 37.5685 215.947 33.1246Z" fill="#1B1F26"/>
<path d="M42.5427 43.7485C42.7818 44.3625 42.8685 45.0252 42.7955 45.68C42.7224 46.3348 42.4917 46.9621 42.1231 47.5082C41.7545 48.0543 41.2591 48.5029 40.6792 48.8155C40.0994 49.1282 39.4524 49.2956 38.7937 49.3034C37.9831 49.301 37.1921 49.0547 36.5235 48.5964C35.8548 48.1382 35.3396 47.4893 35.0448 46.7342L31.9901 39.1658H13.1758L10.1211 46.7341C9.82627 47.4893 9.31099 48.1382 8.64233 48.5964C7.97367 49.0547 7.18259 49.301 6.37203 49.3034C5.30774 49.2915 4.2904 48.8633 3.53781 48.1106C2.78522 47.3578 2.3572 46.3403 2.34537 45.2758C2.32996 44.7529 2.4246 44.2325 2.62316 43.7485L18.7992 3.26684C19.1001 2.50891 19.6217 1.85882 20.2963 1.40079C20.9709 0.942754 21.7675 0.697876 22.5829 0.697876C23.3982 0.697876 24.1948 0.942754 24.8694 1.40079C25.544 1.85882 26.0656 2.50891 26.3665 3.26684L42.5427 43.7485ZM28.7271 31.1112L22.6176 15.6266L16.4388 31.1112L28.7271 31.1112Z" fill="#1B1F26"/>
<path d="M63.3568 20.973C63.3544 21.5043 63.2474 22.0299 63.042 22.5198C62.8365 23.0097 62.5366 23.4543 62.1593 23.8283C61.782 24.2023 61.3348 24.4983 60.8431 24.6994C60.3515 24.9005 59.825 25.0028 59.2938 25.0004L59.2609 25.0001H55.2341V45.2757C55.2334 46.3436 54.8089 47.3675 54.054 48.1226C53.2991 48.8778 52.2753 49.3024 51.2076 49.3032C50.1326 49.3051 49.1001 48.8836 48.3335 48.1298C47.5669 47.3761 47.1279 46.3507 47.1114 45.2757V25.0001H45.0981C44.0304 24.9994 43.0067 24.5749 42.2517 23.8199C41.4966 23.0648 41.0721 22.0409 41.0713 20.973C41.0695 19.8979 41.491 18.8653 42.2446 18.0987C42.9982 17.332 44.0233 16.893 45.0981 16.8765H47.1114V12.849C47.1578 10.8205 47.6559 8.82786 48.5694 7.01617C50.5827 2.91965 54.4009 0.697877 59.2609 0.697877C60.3375 0.689516 61.3733 1.109 62.1407 1.86413C62.9082 2.61927 63.3444 3.64826 63.3536 4.72497C63.3628 5.80167 62.9442 6.83798 62.1898 7.60613C61.4354 8.37429 60.4069 8.81143 59.3304 8.8215C59.3073 8.82169 59.2841 8.82169 59.2609 8.8215C57.1085 8.8215 56.3452 9.65516 55.9284 10.488C55.5116 11.2082 55.2735 12.0178 55.2341 12.849V16.8765H59.2609C60.3466 16.8785 61.3872 17.3108 62.1549 18.0786C62.9226 18.8464 63.3548 19.8872 63.3568 20.973Z" fill="#1B1F26"/>
<path d="M89.9681 20.973C89.9657 21.5043 89.8588 22.0299 89.6533 22.5198C89.4478 23.0097 89.1479 23.4544 88.7706 23.8283C88.3933 24.2023 87.9461 24.4983 87.4545 24.6994C86.9628 24.9005 86.4364 25.0028 85.9052 25.0004L85.8722 25.0001H81.8454V45.2757C81.8447 46.3436 81.4203 47.3675 80.6653 48.1226C79.9104 48.8778 78.8867 49.3024 77.819 49.3032C76.744 49.3051 75.7114 48.8836 74.9448 48.1298C74.1782 47.3761 73.7392 46.3507 73.7227 45.2757V25.0002H71.7095C70.6418 24.9994 69.618 24.5749 68.863 23.8199C68.108 23.0648 67.6834 22.0409 67.6826 20.973C67.6808 19.8979 68.1023 18.8653 68.8559 18.0987C69.6095 17.332 70.6347 16.893 71.7095 16.8765H73.7227V12.849C73.7691 10.8205 74.2673 8.82788 75.1808 7.01618C77.194 2.91967 81.0123 0.697896 85.8723 0.697896C86.4061 0.692558 86.9357 0.792526 87.4308 0.992084C87.926 1.19164 88.3769 1.48687 88.7579 1.86089C89.1388 2.23491 89.4423 2.68038 89.651 3.17181C89.8597 3.66325 89.9695 4.19101 89.974 4.7249C89.9786 5.2588 89.8779 5.78836 89.6776 6.2833C89.4774 6.77823 89.1816 7.22882 88.8071 7.60931C88.4325 7.98979 87.9867 8.29269 87.4951 8.50069C87.0034 8.7087 86.4756 8.81771 85.9417 8.82151C85.9186 8.82171 85.8954 8.82171 85.8723 8.82151C83.7198 8.82151 82.9565 9.65517 82.5398 10.488C82.1229 11.2082 81.8848 12.0178 81.8454 12.849V16.8765H85.8723C86.9579 16.8785 87.9986 17.3108 88.7663 18.0786C89.5339 18.8464 89.9661 19.8872 89.9681 20.973Z" fill="#1B1F26"/>
<path d="M98.6614 10.9049C97.8611 10.898 97.0807 10.6548 96.4181 10.2058C95.7555 9.75683 95.2404 9.12207 94.9373 8.38125C94.6342 7.64042 94.5567 6.82655 94.7145 6.04182C94.8723 5.25709 95.2584 4.53648 95.8243 3.97048C96.3903 3.40448 97.1107 3.01831 97.8954 2.86047C98.68 2.70262 99.4937 2.78013 100.234 3.08327C100.975 3.38641 101.61 3.90166 102.059 4.56433C102.508 5.227 102.751 6.00755 102.758 6.80796C102.756 7.89394 102.323 8.93488 101.556 9.70278C100.788 10.4707 99.7472 10.9029 98.6614 10.9049ZM94.6349 45.2757V20.973C94.6331 19.898 95.0545 18.8654 95.8081 18.0988C96.5616 17.3322 97.5866 16.8931 98.6614 16.8765C99.7434 16.8902 100.777 17.3262 101.543 18.0915C102.308 18.8568 102.744 19.8908 102.758 20.973V45.2757C102.741 46.3508 102.302 47.3761 101.536 48.1298C100.769 48.8836 99.7364 49.3051 98.6614 49.3032C97.5937 49.3024 96.5699 48.8778 95.815 48.1226C95.0601 47.3675 94.6356 46.3436 94.6349 45.2757Z" fill="#1B1F26"/>
</g>
<path d="M8.81775 63.3033H7.1864V55.5338H2.8446V63.3033H1.20056V54.1437H8.81775V63.3033ZM18.8243 63.3033L18.0436 60.9357H14.673L13.8922 63.3033H12.2037L15.4537 54.1437H17.3009L20.5509 63.3033H18.8243ZM16.3361 55.7623L15.0538 59.6725H17.6564L16.3805 55.7623H16.3361ZM23.9432 54.1437H27.5043C29.3261 54.1437 30.5892 55.3815 30.5892 57.2096C30.5892 59.0377 29.288 60.2755 27.4345 60.2755H25.5809V63.3033H23.9432V54.1437ZM25.5809 55.483V58.9552H27.0663C28.2406 58.9552 28.9262 58.3204 28.9262 57.2096C28.9262 56.1115 28.247 55.483 27.0726 55.483H25.5809ZM37.9806 63.3033H36.3493V55.5275H33.6071V54.1437H40.7164V55.5275H37.9806V63.3033ZM51.9735 63.3033H50.3422V59.3297H45.8861V63.3033H44.2484V54.1437H45.8861V57.9523H50.3422V54.1437H51.9735V63.3033ZM61.9294 61.9196V63.3033H56.0006V54.1437H61.9294V55.5275H57.6383V58.0031H61.6945V59.3043H57.6383V61.9196H61.9294ZM65.7724 54.1437H69.3334C71.1552 54.1437 72.4184 55.3815 72.4184 57.2096C72.4184 59.0377 71.1171 60.2755 69.2636 60.2755H67.4101V63.3033H65.7724V54.1437ZM67.4101 55.483V58.9552H68.8954C70.0697 58.9552 70.7553 58.3204 70.7553 57.2096C70.7553 56.1115 70.0761 55.483 68.9018 55.483H67.4101ZM80.0129 63.4874C77.3976 63.4874 75.7536 61.6593 75.7536 58.7203C75.7536 55.8004 77.4103 53.9596 80.0129 53.9596C82.0822 53.9596 83.6628 55.2355 83.9357 57.1144H82.3171C82.0441 56.0607 81.1427 55.3815 80.0129 55.3815C78.4386 55.3815 77.4294 56.6764 77.4294 58.7203C77.4294 60.777 78.4323 62.0656 80.0192 62.0656C81.1745 62.0656 82.0187 61.4752 82.3171 60.4659H83.9421C83.5929 62.3448 82.1203 63.4874 80.0129 63.4874ZM90.832 58.4982L95.1039 63.3033H93.0092L89.2768 59.1266H89.226V63.3033H87.5883V54.1437H89.226V58.149H89.2768L92.8632 54.1437H94.7548L90.832 58.4982ZM104.349 63.3033L103.568 60.9357H100.197L99.4167 63.3033H97.7282L100.978 54.1437H102.825L106.075 63.3033H104.349ZM101.861 55.7623L100.578 59.6725H103.181L101.905 55.7623H101.861ZM114.603 58.6378V55.4767H112.857C111.734 55.4767 111.067 56.0607 111.067 57.0573C111.067 58.0602 111.727 58.6378 112.857 58.6378H114.603ZM113.092 59.92L110.788 63.3033H108.947L111.435 59.6979C110.217 59.3551 109.398 58.3649 109.398 57.0509C109.398 55.3243 110.655 54.1437 112.578 54.1437H116.228V63.3033H114.603V59.92H113.092ZM132.756 63.3033H131.125V55.5338H126.783V63.3033H125.139V54.1437H132.756V63.3033ZM136.777 54.1437H140.338C142.16 54.1437 143.423 55.3815 143.423 57.2096C143.423 59.0377 142.122 60.2755 140.268 60.2755H138.415V63.3033H136.777V54.1437ZM138.415 55.483V58.9552H139.9C141.074 58.9552 141.76 58.3204 141.76 57.2096C141.76 56.1115 141.081 55.483 139.906 55.483H138.415ZM151.106 53.9913C153.772 53.9913 155.448 55.8131 155.448 58.7267C155.448 61.6403 153.772 63.4557 151.106 63.4557C148.434 63.4557 146.758 61.6403 146.758 58.7267C146.758 55.8131 148.434 53.9913 151.106 53.9913ZM151.106 55.3878C149.469 55.3878 148.434 56.6827 148.434 58.7267C148.434 60.7643 149.469 62.0592 151.106 62.0592C152.738 62.0592 153.779 60.7643 153.779 58.7267C153.779 56.6827 152.738 55.3878 151.106 55.3878ZM160.808 63.3033H159.164V54.1437H164.896V55.5338H160.808V63.3033ZM168.454 54.1437H172.015C173.836 54.1437 175.1 55.3815 175.1 57.2096C175.1 59.0377 173.798 60.2755 171.945 60.2755H170.091V63.3033H168.454V54.1437ZM170.091 55.483V58.9552H171.577C172.751 58.9552 173.436 58.3204 173.436 57.2096C173.436 56.1115 172.757 55.483 171.583 55.483H170.091ZM183.97 63.3033L183.189 60.9357H179.819L179.038 63.3033H177.349L180.599 54.1437H182.447L185.697 63.3033H183.97ZM181.482 55.7623L180.199 59.6725H182.802L181.526 55.7623H181.482ZM198.541 63.3033H197.068V56.8033H197.023L194.376 63.2272H193.259L190.612 56.8033H190.568V63.3033H189.089V54.1437H190.987L193.792 61.0563H193.843L196.649 54.1437H198.541V63.3033ZM212.019 63.3033H210.547V56.8033H210.502L207.855 63.2272H206.738L204.091 56.8033H204.047V63.3033H202.568V54.1437H204.466L207.271 61.0563H207.322L210.128 54.1437H212.019V63.3033ZM222.032 63.3033L221.251 60.9357H217.881L217.1 63.3033H215.412L218.662 54.1437H220.509L223.759 63.3033H222.032ZM219.544 55.7623L218.262 59.6725H220.864L219.588 55.7623H219.544Z" fill="#F15A24"/>
<defs>
<clipPath id="clip0_456_149">
<rect width="221.656" height="48.6067" fill="white" transform="translate(2.34375 0.696655)"/>
</clipPath>
</defs>
</svg>
