<svg xmlns="http://www.w3.org/2000/svg" viewBox="0 0 571.15 624.7">
  <defs>
    <style>
      .cls-1, .cls-2 {
        fill: none;
        stroke: #000;
        stroke-linecap: round;
        stroke-width: 24px;
      }

      .cls-1 {
        stroke-linejoin: round;
      }

      .cls-2 {
        stroke-miterlimit: 10;
      }
    </style>
  </defs>
  <g id="Слой_2" data-name="Слой 2">
    <g id="Слой_2-2" data-name="Слой 2">
      <path class="cls-1" d="M479.57,288.71c0,151.89-104.67,275-233.79,275S12,440.6,12,288.71Z"/>
      <path class="cls-1" d="M486.82,324.41c52.62,16.69,83.36,60.85,68.65,98.64s-69.28,54.9-121.9,38.21"/>
      <line class="cls-2" x1="118.9" y1="612.7" x2="372.67" y2="612.7"/>
      <path class="cls-1" d="M148.29,218.84c-7.8-13.6-15.74-34.48-4.87-56.58,9.14-18.58,24.77-24.18,31.61-38.71s4.82-38.39-43.76-75.93"/>
      <path class="cls-1" d="M241.56,183.22c-7.79-13.6-15.73-34.48-4.86-56.58,9.14-18.57,24.77-24.18,31.61-38.71S273.12,49.54,224.54,12"/>
      <path class="cls-1" d="M330.65,218.84c-7.8-13.6-15.74-34.48-4.87-56.58,9.14-18.58,24.78-24.18,31.61-38.71s4.82-38.39-43.76-75.93"/>
    </g>
  </g>
</svg>
