<svg width="35" height="35" viewBox="0 0 35 35" fill="none" xmlns="http://www.w3.org/2000/svg">
<path d="M17.5 23.975C15.5977 23.9769 13.7737 24.7334 12.4286 26.0786C11.0834 27.4237 10.3269 29.2476 10.325 31.15C10.325 31.2892 10.3803 31.4228 10.4788 31.5212C10.5772 31.6197 10.7108 31.675 10.85 31.675H24.15C24.2893 31.675 24.4228 31.6197 24.5212 31.5212C24.6197 31.4228 24.675 31.2892 24.675 31.15C24.6732 29.2476 23.9166 27.4237 22.5715 26.0786C21.2263 24.7334 19.4024 23.9769 17.5 23.975ZM11.396 30.625C11.528 29.0976 12.2281 27.6751 13.3579 26.6388C14.4877 25.6024 15.9651 25.0274 17.4983 25.0274C19.0314 25.0274 20.5088 25.6024 21.6386 26.6388C22.7684 27.6751 23.4685 29.0976 23.6005 30.625H11.396Z" fill="black"/>
<path d="M17.5 22.925C18.2269 22.925 18.9374 22.7095 19.5417 22.3056C20.1461 21.9018 20.6171 21.3279 20.8953 20.6564C21.1734 19.9848 21.2462 19.2459 21.1044 18.533C20.9626 17.8202 20.6126 17.1653 20.0986 16.6514C19.5847 16.1374 18.9298 15.7874 18.217 15.6456C17.5041 15.5038 16.7652 15.5766 16.0937 15.8547C15.4221 16.1329 14.8482 16.6039 14.4444 17.2083C14.0405 17.8126 13.825 18.5232 13.825 19.25C13.8259 20.2244 14.2134 21.1586 14.9024 21.8476C15.5914 22.5366 16.5256 22.9241 17.5 22.925ZM17.5 16.625C18.0192 16.625 18.5267 16.779 18.9584 17.0674C19.3901 17.3558 19.7265 17.7658 19.9252 18.2455C20.1239 18.7251 20.1759 19.2529 20.0746 19.7621C19.9733 20.2713 19.7233 20.739 19.3562 21.1062C18.9891 21.4733 18.5213 21.7233 18.0121 21.8246C17.5029 21.9258 16.9751 21.8739 16.4955 21.6752C16.0158 21.4765 15.6058 21.14 15.3174 20.7084C15.029 20.2767 14.875 19.7692 14.875 19.25C14.8759 18.5541 15.1528 17.8869 15.6449 17.3949C16.137 16.9028 16.8041 16.6259 17.5 16.625Z" fill="black"/>
<path d="M25.655 18.025C24.7114 18.019 23.7757 18.1973 22.9005 18.55C22.8366 18.576 22.7785 18.6143 22.7294 18.6627C22.6803 18.7112 22.6413 18.7688 22.6144 18.8323C22.5876 18.8959 22.5736 18.9641 22.5731 19.033C22.5727 19.102 22.5858 19.1704 22.6118 19.2343C22.6377 19.2981 22.676 19.3563 22.7245 19.4054C22.7729 19.4545 22.8306 19.4935 22.8941 19.5203C22.9576 19.5472 23.0258 19.5612 23.0948 19.5616C23.1638 19.5621 23.2321 19.549 23.296 19.523C24.0457 19.2214 24.847 19.0692 25.655 19.075C28.805 19.075 31.374 21.385 31.6505 24.325H23.3275C23.1883 24.325 23.0548 24.3803 22.9563 24.4788C22.8578 24.5772 22.8025 24.7108 22.8025 24.85C22.8025 24.9892 22.8578 25.1228 22.9563 25.2212C23.0548 25.3197 23.1883 25.375 23.3275 25.375H32.2C32.3393 25.375 32.4728 25.3197 32.5713 25.2212C32.6697 25.1228 32.725 24.9892 32.725 24.85C32.725 21.0875 29.554 18.025 25.655 18.025Z" fill="black"/>
<path d="M25.55 16.625C26.2768 16.625 26.9874 16.4095 27.5917 16.0056C28.1961 15.6018 28.6671 15.0279 28.9453 14.3564C29.2234 13.6848 29.2962 12.9459 29.1544 12.233C29.0126 11.5202 28.6626 10.8653 28.1486 10.3514C27.6347 9.83742 26.9798 9.48741 26.267 9.34561C25.5541 9.20381 24.8152 9.27659 24.1436 9.55474C23.4721 9.83289 22.8982 10.3039 22.4943 10.9083C22.0905 11.5126 21.875 12.2231 21.875 12.95C21.8759 13.9244 22.2634 14.8586 22.9524 15.5476C23.6414 16.2366 24.5756 16.6241 25.55 16.625ZM25.55 10.325C26.0692 10.325 26.5767 10.4789 27.0084 10.7674C27.4401 11.0558 27.7765 11.4658 27.9752 11.9455C28.1739 12.4251 28.2258 12.9529 28.1246 13.4621C28.0233 13.9713 27.7733 14.439 27.4062 14.8062C27.039 15.1733 26.5713 15.4233 26.0621 15.5246C25.5529 15.6258 25.0251 15.5739 24.5455 15.3752C24.0658 15.1765 23.6558 14.84 23.3674 14.4084C23.079 13.9767 22.925 13.4692 22.925 12.95C22.9259 12.2541 23.2028 11.5869 23.6949 11.0949C24.187 10.6028 24.8541 10.3259 25.55 10.325Z" fill="black"/>
<path d="M12.0715 24.85C12.0715 24.7114 12.0167 24.5784 11.919 24.48C11.8213 24.3816 11.6887 24.3259 11.55 24.325H3.34952C3.62602 21.385 6.21253 19.075 9.34853 19.075C10.1546 19.0727 10.9534 19.2273 11.7005 19.53C11.7649 19.556 11.8337 19.569 11.9031 19.5684C11.9725 19.5677 12.0411 19.5535 12.1049 19.5263C12.1688 19.4992 12.2267 19.4597 12.2753 19.4102C12.3239 19.3607 12.3623 19.3021 12.3883 19.2378C12.4142 19.1734 12.4273 19.1046 12.4267 19.0352C12.426 18.9658 12.4117 18.8972 12.3846 18.8334C12.3575 18.7695 12.318 18.7116 12.2685 18.663C12.219 18.6144 12.1604 18.576 12.096 18.55C11.2234 18.1961 10.2902 18.0154 9.34853 18.018C5.44953 18.025 2.27502 21.0875 2.27502 24.85C2.27502 24.9892 2.33034 25.1228 2.42879 25.2212C2.52725 25.3197 2.66079 25.375 2.80002 25.375H11.55C11.6887 25.3741 11.8213 25.3184 11.919 25.22C12.0167 25.1216 12.0715 24.9886 12.0715 24.85Z" fill="black"/>
<path d="M9.45002 16.625C10.1769 16.625 10.8874 16.4095 11.4917 16.0056C12.0961 15.6018 12.5671 15.0279 12.8453 14.3564C13.1234 13.6848 13.1962 12.9459 13.0544 12.233C12.9126 11.5202 12.5626 10.8653 12.0486 10.3514C11.5347 9.83742 10.8799 9.48741 10.167 9.34561C9.4541 9.20381 8.71518 9.27659 8.04366 9.55474C7.37214 9.83289 6.79819 10.3039 6.39437 10.9083C5.99056 11.5126 5.77502 12.2231 5.77502 12.95C5.77595 13.9244 6.16343 14.8586 6.85243 15.5476C7.54143 16.2366 8.47564 16.6241 9.45002 16.625ZM9.45002 10.325C9.9692 10.325 10.4767 10.4789 10.9084 10.7674C11.3401 11.0558 11.6765 11.4658 11.8752 11.9455C12.0739 12.4251 12.1259 12.9529 12.0246 13.4621C11.9233 13.9713 11.6733 14.439 11.3062 14.8062C10.9391 15.1733 10.4713 15.4233 9.96214 15.5246C9.45294 15.6258 8.92514 15.5739 8.44548 15.3752C7.96582 15.1765 7.55586 14.84 7.26742 14.4084C6.97898 13.9767 6.82502 13.4692 6.82502 12.95C6.82595 12.2541 7.10281 11.5869 7.59489 11.0949C8.08697 10.6028 8.75412 10.3259 9.45002 10.325Z" fill="black"/>
<path d="M15.575 8.31599C15.575 8.17676 15.5197 8.04322 15.4213 7.94476C15.3228 7.84631 15.1893 7.79099 15.05 7.79099C14.9108 7.79099 14.7772 7.84631 14.6788 7.94476C14.5803 8.04322 14.525 8.17676 14.525 8.31599C14.525 9.56549 15.575 10.605 16.975 10.8185V11.55C16.975 11.6892 17.0303 11.8228 17.1288 11.9212C17.2272 12.0197 17.3608 12.075 17.5 12.075C17.6393 12.075 17.7728 12.0197 17.8713 11.9212C17.9697 11.8228 18.025 11.6892 18.025 11.55V10.822C19.425 10.6085 20.475 9.56899 20.475 8.31949C20.475 7.06999 19.425 6.03049 18.025 5.81699V2.84549C18.8335 3.02399 19.425 3.59799 19.425 4.28399C19.425 4.42323 19.4803 4.55677 19.5788 4.65523C19.6772 4.75368 19.8108 4.80899 19.95 4.80899C20.0893 4.80899 20.2228 4.75368 20.3213 4.65523C20.4197 4.55677 20.475 4.42323 20.475 4.28399C20.475 3.03449 19.425 1.99499 18.025 1.78149V1.04999C18.025 0.910755 17.9697 0.777219 17.8713 0.678763C17.7728 0.580306 17.6393 0.524994 17.5 0.524994C17.3608 0.524994 17.2272 0.580306 17.1288 0.678763C17.0303 0.777219 16.975 0.910755 16.975 1.04999V1.77799C15.575 1.99149 14.525 3.03099 14.525 4.28049C14.525 5.52999 15.575 6.56949 16.975 6.77949V9.75449C16.17 9.57599 15.575 9.00199 15.575 8.31599ZM19.425 8.31599C19.425 9.016 18.8335 9.57599 18.025 9.75449V6.88099C18.8335 7.05949 19.425 7.63699 19.425 8.31599ZM15.575 4.28049C15.575 3.58049 16.1665 3.02049 16.975 2.84199V5.71199C16.1665 5.53699 15.575 4.96299 15.575 4.28049Z" fill="black"/>
</svg>
