<svg width="35" height="35" viewBox="0 0 35 35" fill="none" xmlns="http://www.w3.org/2000/svg">
<path d="M30.3588 7.55983H24.5045L23.957 5.56279C23.9182 5.41989 23.82 5.30041 23.688 5.23367C23.5559 5.16694 23.4015 5.15891 23.2638 5.21201L17.0266 7.60595C16.9613 7.5766 16.8893 7.55983 16.8131 7.55983H9.31672C9.17452 7.55983 9.03826 7.61783 8.93938 7.7202L4.31981 12.5109C4.21989 12.5895 4.15246 12.6999 4.12905 12.8225C4.12625 12.8351 4.12556 12.8484 4.12381 12.8613C4.12206 12.8781 4.11927 12.8941 4.11892 12.9113C4.11857 12.9179 4.11682 12.9245 4.11682 12.9312C4.11682 12.9315 4.11682 12.9319 4.11682 12.9326V29.2988C4.11682 29.5881 4.35126 29.8229 4.6409 29.8229H28.0207C28.31 29.8229 28.5448 29.5881 28.5448 29.2988V27.4863H30.3584C30.6477 27.4863 30.8825 27.2515 30.8825 26.9622V8.0839C30.8829 7.79427 30.6481 7.55983 30.3588 7.55983ZM24.7477 12.4089H7.43912L23.0993 6.39745L24.7477 12.4089ZM9.53928 8.60797H14.4163L6.67362 11.5801L9.53928 8.60797ZM27.4966 28.7748H5.16498V13.457H27.4966V28.7748ZM29.8347 26.4381H28.5448V12.9329C28.5448 12.6433 28.31 12.4089 28.0207 12.4089H25.8339L24.7917 8.60797H29.8344V26.4381H29.8347Z" fill="black"/>
</svg>
