<svg width="142" height="72" viewBox="0 0 142 72" fill="none" xmlns="http://www.w3.org/2000/svg">
<path d="M36.1487 40.9836C36.4158 41.0537 36.6892 40.894 36.7592 40.6269C36.8293 40.3598 36.6696 40.0864 36.4025 40.0164L36.1487 40.9836ZM1.77559 1.5V1H1.20023L1.28048 1.56974L1.77559 1.5ZM11.7756 28L12.1463 27.6645L12.1463 27.6645L11.7756 28ZM6.37427 9.29823C6.53897 9.51987 6.85217 9.56603 7.07382 9.40132C7.29546 9.23662 7.34162 8.92342 7.17691 8.70177L6.37427 9.29823ZM1.62934 1.35335C1.82449 1.15798 1.82432 0.8414 1.62894 0.646248C1.43357 0.451095 1.11699 0.451274 0.921837 0.646646L1.62934 1.35335ZM0.776336 11.0273C0.791427 11.3031 1.02718 11.5143 1.30291 11.4993C1.57864 11.4842 1.78993 11.2484 1.77484 10.9727L0.776336 11.0273ZM4.27559 5.5L3.86036 5.77853L4.27559 5.5ZM1.80577 1.55048L1.37556 1.80527L1.37678 1.80732L1.80577 1.55048ZM36.2756 40.5C36.4025 40.0164 36.4025 40.0164 36.4024 40.0164C36.4023 40.0163 36.4022 40.0163 36.402 40.0162C36.4016 40.0161 36.4009 40.0159 36.3999 40.0157C36.398 40.0152 36.3951 40.0144 36.3912 40.0134C36.3832 40.0113 36.3712 40.0081 36.3552 40.0038C36.3231 39.9952 36.275 39.9822 36.2117 39.9649C36.0851 39.9302 35.8977 39.8781 35.6563 39.8089C35.1733 39.6704 34.4742 39.4635 33.6122 39.1902C31.8877 38.6434 29.514 37.8319 26.9172 36.7734C21.7025 34.6477 15.6694 31.5571 12.1463 27.6645L11.4049 28.3355C15.0895 32.4067 21.3064 35.5661 26.5397 37.6994C29.167 38.7704 31.5669 39.5907 33.3099 40.1434C34.1817 40.4198 34.8898 40.6294 35.3807 40.7702C35.6261 40.8405 35.8173 40.8937 35.9476 40.9294C36.0127 40.9472 36.0625 40.9606 36.0963 40.9697C36.1133 40.9742 36.1261 40.9777 36.1349 40.98C36.1393 40.9811 36.1426 40.982 36.1449 40.9826C36.1461 40.9829 36.147 40.9832 36.1476 40.9833C36.1479 40.9834 36.1482 40.9835 36.1484 40.9835C36.1486 40.9836 36.1487 40.9836 36.2756 40.5ZM12.1463 27.6645C8.51844 23.6561 6.04299 17.1296 4.47355 11.5395C3.69203 8.75584 3.14087 6.22601 2.78515 4.39214C2.60734 3.47546 2.47849 2.73333 2.3942 2.22111C2.35206 1.96502 2.32106 1.76645 2.30066 1.63232C2.29046 1.56526 2.28291 1.51431 2.27794 1.48034C2.27546 1.46336 2.27361 1.45062 2.27241 1.44224C2.27181 1.43805 2.27137 1.43495 2.27108 1.43294C2.27094 1.43194 2.27084 1.43122 2.27077 1.43077C2.27074 1.43055 2.27072 1.43042 2.27071 1.43031C2.2707 1.43025 2.2707 1.43026 1.77559 1.5C1.28048 1.56974 1.2805 1.56989 1.28053 1.57011C1.28055 1.57028 1.28059 1.57057 1.28064 1.5709C1.28074 1.57157 1.28087 1.57251 1.28104 1.57373C1.28139 1.57617 1.28189 1.57971 1.28256 1.58435C1.28389 1.59362 1.28586 1.60725 1.28848 1.62514C1.29372 1.66092 1.30154 1.71373 1.31203 1.7827C1.33301 1.92062 1.36464 2.1232 1.40747 2.38349C1.49314 2.90403 1.62364 3.65557 1.80345 4.58256C2.16297 6.43603 2.72009 8.9935 3.51077 11.8098C5.08571 17.4194 7.61026 24.1429 11.4049 28.3355L12.1463 27.6645ZM0.921837 0.646646C0.81301 0.755596 0.75445 0.889453 0.720504 0.983846C0.682863 1.08852 0.654578 1.20584 0.632157 1.32608C0.587193 1.56722 0.55691 1.8697 0.536595 2.21051C0.495796 2.89498 0.492256 3.78937 0.510573 4.77499C0.547258 6.74896 0.672646 9.13271 0.776336 11.0273L1.77484 10.9727C1.67103 9.07583 1.5467 6.70959 1.5104 4.75641C1.49223 3.77847 1.49638 2.91501 1.53482 2.27001C1.55413 1.9461 1.58136 1.69095 1.61521 1.50939C1.6322 1.41828 1.64866 1.35798 1.66151 1.32225C1.67805 1.27624 1.67574 1.3069 1.62934 1.35335L0.921837 0.646646ZM3.86036 5.77853C4.33354 6.48396 4.96299 7.36507 5.4717 8.06662C5.72655 8.41809 5.95204 8.72579 6.11384 8.94565C6.19475 9.05559 6.25977 9.14361 6.30459 9.20421C6.32701 9.2345 6.34438 9.25794 6.35617 9.27384C6.36206 9.28179 6.36657 9.28786 6.3696 9.29195C6.37112 9.294 6.37228 9.29555 6.37306 9.2966C6.37345 9.29712 6.37374 9.29752 6.37394 9.2978C6.37405 9.29793 6.37412 9.29804 6.37418 9.29811C6.3742 9.29814 6.37423 9.29817 6.37424 9.29819C6.37426 9.29821 6.37427 9.29823 6.77559 9C7.17691 8.70177 7.17691 8.70177 7.1769 8.70176C7.17689 8.70175 7.17688 8.70173 7.17686 8.7017C7.17682 8.70164 7.17675 8.70156 7.17666 8.70144C7.17648 8.7012 7.17621 8.70083 7.17585 8.70034C7.17512 8.69935 7.17401 8.69787 7.17254 8.69589C7.1696 8.69193 7.16521 8.686 7.15942 8.67819C7.14783 8.66258 7.13068 8.63943 7.1085 8.60944C7.06412 8.54946 6.99961 8.46213 6.91925 8.35293C6.75851 8.1345 6.53444 7.82875 6.28126 7.47959C5.77389 6.77988 5.15334 5.91099 4.69082 5.22147L3.86036 5.77853ZM1.77559 1.5C1.77559 2 1.73721 1.99852 1.69906 1.99411C1.68815 1.9923 1.658 1.98598 1.63889 1.98095C1.60456 1.97119 1.57668 1.95929 1.55634 1.94937C1.51707 1.93021 1.48851 1.90984 1.47296 1.89801C1.44199 1.87447 1.42079 1.8525 1.41273 1.84399C1.39447 1.82474 1.38188 1.80826 1.37836 1.80365C1.36899 1.7914 1.36228 1.78138 1.36077 1.77914C1.3562 1.77235 1.35288 1.76703 1.35242 1.7663C1.35063 1.76344 1.34986 1.76213 1.35143 1.76473C1.35411 1.76917 1.36078 1.78031 1.37556 1.80527L2.23598 1.29569C2.22087 1.27017 2.21245 1.25607 2.20751 1.24789C2.20527 1.24418 2.20256 1.23971 2.19978 1.23528C2.19883 1.23376 2.19525 1.22804 2.19055 1.22105C2.18898 1.21872 2.18223 1.20865 2.17284 1.19637C2.16931 1.19176 2.15671 1.17527 2.13846 1.15601C2.13039 1.1475 2.10919 1.12553 2.07822 1.10199C2.06267 1.09016 2.03411 1.06979 1.99484 1.05063C1.97449 1.04071 1.94661 1.02881 1.91229 1.01905C1.89318 1.01402 1.86303 1.0077 1.85212 1.00589C1.81397 1.00148 1.77559 1 1.77559 1.5ZM1.37678 1.80732C1.59055 2.16437 2.91225 4.3651 3.86036 5.77853L4.69082 5.22147C3.75936 3.83284 2.45055 1.65406 2.23477 1.29364L1.37678 1.80732Z" fill="#423F43"/>
<path d="M49.5605 42.2969L50.291 38.9185H48.5293C48.5347 38.897 47.9976 40.7446 48.0029 40.7231C47.8203 41.3677 47.584 41.8618 47.2886 42.2002L47.2725 42.2969H49.5605ZM46.0425 44.9932H44.646L45.2153 42.2969H45.6611C46.0532 42.0928 46.4023 41.5181 46.6494 40.6265C46.644 40.6479 47.4712 37.7046 47.4658 37.7261H52.0527L51.0806 42.2969H51.9399L51.3706 44.9932H49.9741L50.291 43.5H46.3594L46.0425 44.9932ZM54.7544 42.4419C55.3882 42.4419 55.9414 42.0444 56.0703 41.4858L56.1777 40.9971L54.9585 41.0454C54.2979 41.0669 53.895 41.3516 53.895 41.792C53.895 42.1841 54.2441 42.4419 54.7544 42.4419ZM54.1367 43.5913C53.1646 43.5913 52.3965 42.9253 52.3965 42.0068C52.3965 40.8413 53.3418 40.1377 54.8994 40.084L56.3818 40.0303L56.4517 39.6812C56.4731 39.5898 56.4731 39.5308 56.4731 39.4663C56.4731 39.0635 56.1348 38.8057 55.5601 38.8057C54.98 38.8057 54.6094 39.0635 54.502 39.4717H53.0518C53.2559 38.3384 54.2656 37.5972 55.6729 37.5972C57.0532 37.5972 57.9824 38.2954 57.9824 39.3105C57.9824 39.4771 57.9609 39.665 57.9395 39.7886L57.1499 43.5H55.6675L55.8179 42.8071H55.7856C55.4526 43.2798 54.8511 43.5913 54.1367 43.5913ZM62.0645 43.5H60.6143L61.8389 37.7261H63.8154L64.5083 41.416H64.5781L66.9092 37.7261H68.8965L67.6719 43.5H66.2217L67.0327 39.6919H66.9575L64.7178 43.1724H63.6812L62.9453 39.6919H62.8755L62.0645 43.5ZM74.3267 43.5L75.5513 37.7261H77.0874L75.8628 43.5H74.3267ZM71.7969 40.5728H70.9321L70.5562 42.2969H71.4155C72.103 42.2969 72.5811 41.8188 72.5811 41.2441C72.5811 40.8359 72.2856 40.5728 71.7969 40.5728ZM68.7676 43.5L69.9922 37.7261H71.5283L71.1738 39.3857H72.1621C73.3652 39.3857 74.1279 40.0732 74.1279 41.0723C74.1279 42.4473 73.0054 43.5 71.4048 43.5H68.7676ZM83.1567 43.5L84.1343 38.9292H81.9375L80.96 43.5H79.4238L80.6484 37.7261H85.9229L84.6982 43.5H83.1567ZM88.8501 42.3613C89.7686 42.3613 90.4453 41.4321 90.4453 40.2183C90.4453 39.4019 90.0156 38.8647 89.3496 38.8647C88.4258 38.8647 87.749 39.7832 87.749 41.0078C87.749 41.8188 88.1841 42.3613 88.8501 42.3613ZM89.4033 37.5972C90.9717 37.5972 92.0083 38.6338 92.0083 40.1807C92.0083 42.1572 90.6548 43.6289 88.8018 43.6289C87.2334 43.6289 86.1968 42.5923 86.1968 41.04C86.1968 39.0635 87.5503 37.5972 89.4033 37.5972ZM96.0151 43.5L96.9927 38.9292H94.7959L93.8184 43.5H92.2822L93.5068 37.7261H98.7812L97.5566 43.5H96.0151ZM99.0122 45.6108C98.8833 45.6108 98.3462 45.5894 98.2817 45.5732L98.5234 44.3218C98.5879 44.3433 98.9585 44.3594 99.0659 44.3594C99.5547 44.3594 99.9092 44.1714 100.086 43.6611C100.086 43.6343 100.178 43.4409 100.172 43.4248L99.4204 37.7261H100.973L101.306 42.1626H101.338L103.502 37.7261H105.151L101.88 43.7202C101.134 45.1274 100.301 45.6108 99.0122 45.6108ZM107.01 40.793C106.462 42.834 105.796 43.5698 104.475 43.5698C104.292 43.5698 104.077 43.5376 103.959 43.5L104.233 42.1572C104.33 42.1841 104.442 42.1948 104.561 42.1948C105.022 42.1948 105.372 41.7168 105.656 40.6748C105.672 40.6211 106.457 37.7368 106.457 37.7261H110.791L109.566 43.5H108.057L109.035 38.9292H107.536C107.531 38.9453 107.021 40.7661 107.01 40.793ZM114.572 40.5298L114.921 38.9185H114.03C113.369 38.9185 112.913 39.2944 112.913 39.8315C112.913 40.2559 113.219 40.5298 113.702 40.5298H114.572ZM114.03 37.7261H116.705L115.48 43.5H113.944L114.341 41.6362H113.793L112.118 43.5H110.292L112.273 41.3569C111.699 41.083 111.355 40.5405 111.355 39.8853C111.355 38.6069 112.44 37.7261 114.03 37.7261ZM119.825 42.2969C120.711 42.2969 121.404 41.3892 121.404 40.186C121.404 39.3857 120.985 38.8916 120.309 38.8916C119.363 38.8916 118.697 39.9014 118.697 41.0454C118.697 41.7866 119.143 42.2969 119.825 42.2969ZM117.704 45.3853H116.178L117.806 37.7261H119.304L119.116 38.5854H119.148C119.546 37.9839 120.217 37.6348 120.948 37.6348C122.194 37.6348 122.962 38.5317 122.962 39.9551C122.962 42.0444 121.737 43.5913 120.104 43.5913C119.25 43.5913 118.595 43.1348 118.37 42.415H118.337L117.704 45.3853ZM123.22 43.5L124.444 37.7261H125.986L125.513 39.939H127.753L128.226 37.7261H129.767L128.542 43.5H127.006L127.506 41.1421H125.266L124.761 43.5H123.22ZM135.203 43.5L136.427 37.7261H137.963L136.739 43.5H135.203ZM132.673 40.5728H131.808L131.432 42.2969H132.292C132.979 42.2969 133.457 41.8188 133.457 41.2441C133.457 40.8359 133.162 40.5728 132.673 40.5728ZM129.644 43.5L130.868 37.7261H132.404L132.05 39.3857H133.038C134.241 39.3857 135.004 40.0732 135.004 41.0723C135.004 42.4473 133.881 43.5 132.281 43.5H129.644ZM139.908 35.7495H141.573L140.327 40.9487H138.946L139.908 35.7495ZM139.226 43.645C138.737 43.645 138.35 43.2637 138.35 42.7749C138.35 42.2915 138.737 41.9102 139.226 41.9102C139.709 41.9102 140.101 42.2915 140.101 42.7749C140.101 43.2637 139.709 43.645 139.226 43.645Z" fill="#F15A24"/>
</svg>
