<svg width="134" height="4" viewBox="0 0 134 4" fill="none" xmlns="http://www.w3.org/2000/svg">
<path d="M134 2.58938C133.814 2.64692 133.666 2.762 133.517 2.762C132.441 2.99217 131.401 3.10725 130.324 3.04971H116.735C116.066 3.04971 115.398 2.99217 114.73 2.93463C114.024 2.87708 98.504 2.87708 97.7985 2.87708C96.8331 2.87708 95.9049 2.81954 94.9395 2.81954H92.4889H43.292C42.5866 2.81954 41.8811 2.87708 41.2128 2.93463C40.2102 2.99217 34.418 2.99217 33.4155 3.04971C32.5615 3.10725 24.69 3.16479 23.836 3.22233C22.4251 3.33742 19.529 3.39496 18.118 3.4525C17.3383 3.51004 12.8456 3.51004 12.0659 3.56758C11.509 3.62513 10.952 3.74021 10.3951 3.74021C9.46681 3.74021 6.31079 3.68267 5.38254 3.62513C5.19689 3.62513 5.01124 3.68267 4.8256 3.74021C3.93448 3.79775 2.96911 3.85529 2.04086 3.91283C1.85522 3.91283 1.7067 3.91283 1.52105 3.97038C1.11262 4.08546 0.852712 3.85529 0.592804 3.4525C0.370026 3.04971 0.258636 2.64692 0.0358579 2.24413C-0.0384016 2.0715 -0.00127186 1.89888 0.184377 1.84133C0.407155 1.78379 0.592804 1.72625 0.815583 1.66871C0.778453 1.61117 0.778453 1.55363 0.778453 1.55363C0.704193 1.49608 0.629934 1.381 0.592804 1.32346C0.704193 1.26592 0.778453 1.26592 0.889842 1.20838H0.964102C1.52105 0.748042 2.07799 1.09329 2.67207 1.09329C3.15476 1.09329 3.67457 1.03575 4.19439 0.978208C4.60282 0.920667 5.01124 0.805583 5.41967 0.748042C5.8281 0.748042 8.46431 0.805583 8.87274 0.805583C9.50394 0.863125 10.1352 0.863125 10.7664 0.863125C11.0263 0.863125 11.2862 0.748042 11.5461 0.748042C12.2887 0.6905 16.7442 0.575417 17.4868 0.517875C18.0067 0.460333 18.5265 0.517875 19.0092 0.517875C19.9745 0.517875 22.4251 0.402792 23.3905 0.34525H24.8385C25.2841 0.34525 32.7843 0.287708 33.2299 0.287708C33.7497 0.287708 34.2324 0.230167 34.7522 0.230167C35.6804 0.172625 41.4355 0.0575417 42.3638 0H43.3291H94.6425C95.4964 0 96.3504 0.115083 97.2044 0.115083C97.6871 0.115083 98.1698 0.115083 98.6525 0.172625C99.2837 0.287708 114.73 0.460333 115.361 0.575417C115.547 0.632958 115.732 0.460333 115.918 0.460333C116.141 0.460333 116.363 0.517875 116.586 0.517875C116.735 0.517875 116.883 0.460333 117.032 0.460333H117.18C117.626 0.517875 129.21 0.632958 129.693 0.6905C130.064 0.748042 130.398 0.6905 130.77 0.6905C130.918 0.6905 131.067 0.863125 131.215 0.863125C131.772 0.920667 132.329 0.920667 132.886 0.863125C133.22 0.863125 133.443 0.978208 133.554 1.43854C133.74 1.84133 133.814 2.12904 134 2.58938Z" fill="#F15A24"/>
</svg>
