<svg width="35" height="35" viewBox="0 0 35 35" fill="none" xmlns="http://www.w3.org/2000/svg">
<path d="M29.2523 1.69537H5.62597C3.50895 1.69537 1.78638 3.41794 1.78638 5.53497V21.7953C1.78638 23.912 3.5086 25.6342 5.62597 25.6342H14.0201V32.1352H7.51386C7.22473 32.1352 6.99071 32.3692 6.99071 32.6584C6.99071 32.9475 7.22473 33.1815 7.51386 33.1815H14.5433H20.3346H27.364C27.6532 33.1815 27.8872 32.9475 27.8872 32.6584C27.8872 32.3692 27.6532 32.1352 27.364 32.1352H20.8578V25.6342H29.2519C31.3683 25.6342 33.0901 23.912 33.0901 21.7953V5.53497C33.0905 3.41794 31.3686 1.69537 29.2523 1.69537ZM5.62597 2.74168H29.2523C30.7917 2.74168 32.0442 3.99481 32.0442 5.53497V17.864H2.83303V5.53497C2.83303 3.99446 4.08581 2.74168 5.62597 2.74168ZM19.8118 32.1352H15.0668V25.6342H19.8118V32.1352ZM29.2523 24.5879H20.3349H14.5436H5.62632C4.08616 24.5879 2.83303 23.3351 2.83303 21.7953V18.9106H32.0442V21.7953C32.0442 23.3351 30.7917 24.5879 29.2523 24.5879Z" fill="#231F20"/>
<path d="M17.4392 19.899C16.359 19.899 15.4805 20.7772 15.4805 21.8563C15.4805 22.9354 16.359 23.8136 17.4392 23.8136C18.5186 23.8136 19.3964 22.9354 19.3964 21.8563C19.3964 20.7772 18.5186 19.899 17.4392 19.899ZM17.4392 22.7673C16.9362 22.7673 16.5268 22.3585 16.5268 21.8563C16.5268 21.3541 16.9359 20.9453 17.4392 20.9453C17.9414 20.9453 18.3501 21.3541 18.3501 21.8563C18.3501 22.3585 17.9414 22.7673 17.4392 22.7673Z" fill="#231F20"/>
</svg>
