<svg width="35" height="35" viewBox="0 0 35 35" fill="none" xmlns="http://www.w3.org/2000/svg">
<path d="M32.4765 7.66665L27.0728 2.26292C26.8692 2.05935 26.5395 2.05935 26.336 2.26292L16.7218 11.8767L10.9179 6.16625C10.9134 6.16173 10.9075 6.15861 10.9026 6.15444C10.8835 6.13707 10.863 6.12144 10.8411 6.10685C10.8307 6.0999 10.821 6.09225 10.8102 6.086C10.7845 6.07141 10.7571 6.05995 10.7286 6.04952C10.7213 6.04709 10.715 6.04258 10.7077 6.04014L2.84688 3.58407C2.66276 3.52675 2.46023 3.57608 2.32301 3.71295C2.18579 3.85017 2.13611 4.05201 2.19413 4.23682L4.65055 12.0973C4.66549 12.1449 4.68842 12.1887 4.71586 12.2297C4.72455 12.2429 4.73497 12.2536 4.7447 12.2658C4.75755 12.2818 4.76797 12.2992 4.78256 12.3134L10.5806 18.018L2.26291 26.336C2.05934 26.5395 2.05934 26.8692 2.26291 27.0728L7.66698 32.4772C7.7646 32.5748 7.8973 32.6297 8.03556 32.6297C8.17383 32.6297 8.30618 32.5748 8.40415 32.4772L16.8076 24.0737L23.6068 30.6815C23.6937 30.7653 23.8028 30.8059 23.9143 30.8181C24.7029 31.5493 25.72 31.954 26.8018 31.954C27.9385 31.954 29.0074 31.5115 29.8109 30.7076C31.4482 29.0703 31.4666 26.4214 29.8724 24.7574C29.8471 24.6709 29.8019 24.591 29.7359 24.5274L22.9169 17.9641L32.4769 8.40382C32.6801 8.1999 32.6801 7.87022 32.4765 7.66665ZM9.90802 6.88258L9.51859 8.20615L7.70311 8.7401C7.53323 8.79012 7.40018 8.92283 7.35016 9.09305L6.81656 10.9082L5.49264 11.2976L3.48574 4.87568L9.90802 6.88258ZM8.03522 31.3718L3.36797 26.7042L5.33145 24.7407L7.66489 27.0742C7.76668 27.176 7.90008 27.2267 8.03348 27.2267C8.16688 27.2267 8.30028 27.176 8.40207 27.0742C8.60564 26.8706 8.60564 26.5409 8.40207 26.3374L6.06862 24.0039L7.98068 22.0919L10.3141 24.4253C10.4159 24.5271 10.5493 24.5778 10.6827 24.5778C10.8161 24.5778 10.9495 24.5271 11.0513 24.4253C11.2549 24.2217 11.2549 23.8921 11.0513 23.6885L8.71785 21.355L11.3264 18.7464L16.0604 23.3473L8.03522 31.3718ZM29.0731 29.9704C27.9069 31.1359 26.0619 31.2155 24.8015 30.2119L29.3149 25.6985C30.3185 26.9592 30.2389 28.8049 29.0731 29.9704ZM23.9643 29.5758L11.6519 17.6098L6.14504 12.1918L7.3835 11.8277C7.55338 11.7777 7.68643 11.645 7.73646 11.4748L8.2704 9.65965L10.0859 9.1257C10.2558 9.07568 10.3888 8.94297 10.4388 8.77275L10.8078 7.519L21.8014 18.3355L28.6308 24.9096L23.9643 29.5758ZM22.1697 17.2374L17.4645 12.6076L20.1391 9.93305L22.4726 12.2665C22.5744 12.3683 22.7078 12.419 22.8412 12.419C22.9746 12.419 23.108 12.3683 23.2098 12.2665C23.4133 12.0633 23.4133 11.7329 23.2098 11.5297L20.8763 9.19623L23.0489 7.02362L25.3824 9.35707C25.4841 9.45886 25.6175 9.50957 25.7509 9.50957C25.8843 9.50957 26.0177 9.45886 26.1195 9.35707C26.3231 9.15384 26.3231 8.82347 26.1195 8.62024L23.7861 6.2868L26.7049 3.36799L31.3714 8.03523L22.1697 17.2374Z" fill="black"/>
</svg>
