<svg width="35" height="35" viewBox="0 0 35 35" fill="none" xmlns="http://www.w3.org/2000/svg">
<path d="M22.687 14.301C22.4688 14.3009 22.2526 14.3425 22.05 14.4235V14.259C22.0491 13.7608 21.8507 13.2833 21.4985 12.931C21.1462 12.5787 20.6687 12.3804 20.1705 12.3795H20.083C19.7797 12.3821 19.4817 12.459 19.215 12.6035C19.1273 12.1798 18.8964 11.7992 18.5612 11.5258C18.2259 11.2523 17.8066 11.1027 17.374 11.102C17.054 11.1017 16.7386 11.1772 16.4535 11.3225V8.60649H19.7785C19.9177 8.60649 20.0513 8.55118 20.1497 8.45272C20.2482 8.35427 20.3035 8.22073 20.3035 8.08149V2.97499C20.3035 2.90575 20.2898 2.8372 20.2632 2.77327C20.2366 2.70935 20.1976 2.65132 20.1485 2.60252C20.0994 2.55372 20.0411 2.51512 19.977 2.48895C19.9129 2.46277 19.8442 2.44953 19.775 2.44999H8.92498C8.78574 2.44999 8.65221 2.50531 8.55375 2.60376C8.4553 2.70222 8.39998 2.83575 8.39998 2.97499V8.08149C8.39998 8.22073 8.4553 8.35427 8.55375 8.45272C8.65221 8.55118 8.78574 8.60649 8.92498 8.60649H12.6V21.4515L9.52348 18.9315C8.90585 18.4147 8.11763 18.147 7.31301 18.1806C6.5084 18.2143 5.7453 18.5469 5.17298 19.1135C5.08093 19.2045 5.02572 19.3263 5.01797 19.4555C5.01022 19.5847 5.05047 19.7122 5.13098 19.8135L12.6 29.3615V33.775C12.6 33.9142 12.6553 34.0478 12.7538 34.1462C12.8522 34.2447 12.9857 34.3 13.125 34.3C13.2642 34.3 13.3978 34.2447 13.4962 34.1462C13.5947 34.0478 13.65 33.9142 13.65 33.775V29.1795C13.6495 29.0627 13.6101 28.9494 13.538 28.8575L6.27198 19.5615C6.6642 19.3118 7.12589 19.1937 7.58983 19.2246C8.05378 19.2554 8.49577 19.4335 8.85148 19.733L12.7925 22.9635C12.8691 23.0262 12.962 23.066 13.0603 23.0782C13.1586 23.0904 13.2584 23.0746 13.3481 23.0325C13.4378 22.9904 13.5137 22.9238 13.5671 22.8403C13.6205 22.7569 13.6493 22.6601 13.65 22.561V6.86349C13.6509 6.64378 13.7386 6.43333 13.894 6.27797C14.0493 6.1226 14.2598 6.03491 14.4795 6.03399H14.567C14.7873 6.03399 14.9987 6.12127 15.1548 6.27673C15.3109 6.4322 15.3991 6.64318 15.4 6.86349V18.025C15.4 18.1642 15.4553 18.2978 15.5538 18.3962C15.6522 18.4947 15.7857 18.55 15.925 18.55C16.0642 18.55 16.1978 18.4947 16.2962 18.3962C16.3947 18.2978 16.45 18.1642 16.45 18.025V12.95C16.473 12.7251 16.5812 12.5175 16.7523 12.3698C16.9235 12.222 17.1446 12.1454 17.3705 12.1555C17.5902 12.1564 17.8006 12.2441 17.956 12.3995C18.1114 12.5548 18.1991 12.7653 18.2 12.985V14.175C18.2 14.175 18.2 14.203 18.2 14.217C18.2 14.231 18.2 14.245 18.2 14.259V18.025C18.2 18.1642 18.2553 18.2978 18.3538 18.3962C18.4522 18.4947 18.5857 18.55 18.725 18.55C18.8642 18.55 18.9978 18.4947 19.0962 18.3962C19.1947 18.2978 19.25 18.1642 19.25 18.025V14.2625C19.2509 14.0428 19.3386 13.8323 19.494 13.677C19.6493 13.5216 19.8598 13.4339 20.0795 13.433H20.167C20.3873 13.433 20.5987 13.5203 20.7548 13.6757C20.9109 13.8312 20.9991 14.0422 21 14.2625V18.025C21 18.1642 21.0553 18.2978 21.1538 18.3962C21.2522 18.4947 21.3857 18.55 21.525 18.55C21.6642 18.55 21.7978 18.4947 21.8962 18.3962C21.9947 18.2978 22.05 18.1642 22.05 18.025V16.1C22.0377 16.0081 22.0448 15.9147 22.071 15.8257C22.0971 15.7368 22.1417 15.6543 22.2017 15.5837C22.2618 15.5131 22.336 15.4558 22.4196 15.4158C22.5032 15.3757 22.5943 15.3536 22.687 15.351C22.8869 15.351 23.0789 15.4294 23.2216 15.5695C23.3643 15.7096 23.4463 15.9001 23.45 16.1V25.1615C23.4515 25.8768 23.3112 26.5854 23.0373 27.2462C22.7633 27.907 22.3611 28.507 21.854 29.0115C21.8031 29.0623 21.7632 29.1229 21.7367 29.1898C21.7102 29.2566 21.6977 29.3281 21.7 29.4V33.425C21.7 33.5642 21.7553 33.6978 21.8538 33.7962C21.9522 33.8947 22.0857 33.95 22.225 33.95C22.3642 33.95 22.4978 33.8947 22.5962 33.7962C22.6947 33.6978 22.75 33.5642 22.75 33.425V29.5995C23.8787 28.398 24.5049 26.81 24.5 25.1615V16.1C24.4963 15.6216 24.3036 15.164 23.964 14.8271C23.6244 14.4901 23.1654 14.301 22.687 14.301ZM14.5705 4.98049H14.483C13.9836 4.98049 13.5046 5.17888 13.1515 5.53201C12.7984 5.88514 12.6 6.36409 12.6 6.86349V7.56349H9.44998V3.49999H19.25V7.55649H16.45V6.85649C16.4481 6.35891 16.2494 5.88229 15.8972 5.53077C15.5451 5.17925 15.0681 4.98141 14.5705 4.98049Z" fill="black"/>
<path d="M27.825 4.54999H22.575C22.4357 4.54999 22.3022 4.6053 22.2038 4.70376C22.1053 4.80221 22.05 4.93575 22.05 5.07499C22.05 5.21423 22.1053 5.34776 22.2038 5.44622C22.3022 5.54468 22.4357 5.59999 22.575 5.59999H27.825C27.9642 5.59999 28.0978 5.54468 28.1962 5.44622C28.2947 5.34776 28.35 5.21423 28.35 5.07499C28.35 4.93575 28.2947 4.80221 28.1962 4.70376C28.0978 4.6053 27.9642 4.54999 27.825 4.54999Z" fill="black"/>
<path d="M22.6345 7.69999C22.535 7.60725 22.4033 7.55676 22.2673 7.55916C22.1313 7.56156 22.0015 7.61666 21.9054 7.71285C21.8092 7.80904 21.7541 7.93881 21.7517 8.07482C21.7493 8.21083 21.7998 8.34246 21.8925 8.44199L26.572 13.132C26.6738 13.2069 26.7992 13.2426 26.9252 13.2324C27.0512 13.2223 27.1693 13.167 27.2579 13.0768C27.3464 12.9866 27.3994 12.8674 27.4071 12.7412C27.4149 12.6151 27.3768 12.4904 27.3 12.39L22.6345 7.69999Z" fill="black"/>
<path d="M7.37101 9.42899C7.27257 9.33067 7.13914 9.27545 7.00001 9.27545C6.86088 9.27545 6.72745 9.33067 6.62901 9.42899L3.12901 12.929C3.07743 12.9771 3.03606 13.035 3.00736 13.0994C2.97867 13.1638 2.96324 13.2333 2.962 13.3038C2.96075 13.3743 2.97372 13.4443 3.00012 13.5097C3.02653 13.5751 3.06583 13.6345 3.11568 13.6843C3.16554 13.7342 3.22492 13.7735 3.29029 13.7999C3.35566 13.8263 3.42568 13.8392 3.49618 13.838C3.56667 13.8368 3.63619 13.8213 3.70059 13.7926C3.76499 13.7639 3.82295 13.7226 3.87101 13.671L7.37101 10.171C7.46933 10.0726 7.52455 9.93912 7.52455 9.79999C7.52455 9.66086 7.46933 9.52743 7.37101 9.42899Z" fill="black"/>
</svg>
