<svg width="35" height="35" viewBox="0 0 35 35" fill="none" xmlns="http://www.w3.org/2000/svg">
<path d="M29.05 18.113H17.5235V14.5949H23.5698C23.6849 14.5949 23.7965 14.5569 23.8879 14.4868L29.3681 10.2876C29.4978 10.1883 29.5738 10.0337 29.5731 9.87017C29.5724 9.7066 29.495 9.55279 29.3646 9.45444L23.8844 5.3299C23.7933 5.26154 23.6831 5.22457 23.5698 5.22457H17.5235V2.82644C17.5235 2.53731 17.2895 2.30328 17.0004 2.30328C16.7112 2.30328 16.4772 2.53731 16.4772 2.82644V5.22457H4.94937C4.66024 5.22457 4.42621 5.4586 4.42621 5.74772V14.0718C4.42621 14.3609 4.66024 14.5949 4.94937 14.5949H16.4772V18.113H10.4313C10.3162 18.113 10.2046 18.1506 10.1132 18.2211L4.63129 22.4203C4.5012 22.5197 4.42552 22.6742 4.42621 22.8377C4.42691 23.0013 4.50399 23.1551 4.63478 23.2531L10.1167 27.3777C10.2074 27.446 10.318 27.483 10.4313 27.483H16.4772V32.0895H9.2591C8.96997 32.0895 8.73595 32.3239 8.73595 32.6127C8.73595 32.9015 8.96997 33.1358 9.2591 33.1358H24.7417C25.0304 33.1358 25.2648 32.9015 25.2648 32.6127C25.2648 32.3239 25.0304 32.0895 24.7417 32.0895H17.5235V27.4834H29.05C29.3388 27.4834 29.5731 27.249 29.5731 26.9602V18.6361C29.5731 18.3473 29.3388 18.113 29.05 18.113ZM5.47252 6.27088H23.3951L28.1847 9.87645L23.3923 13.5486H5.47252V6.27088ZM28.5268 26.437H10.6064L5.81431 22.8318L10.6085 19.1593H28.5265V26.437H28.5268Z" fill="black"/>
</svg>
